/* XPM */
static char *e6fb1a17c51f4eb4bcea7b11e93960b2z1U5Sfq3LtX6ZjtX[] = {
/* columns rows colors chars-per-pixel */
"48 48 252 2 ",
"   c None",
".  c #33983F",
"X  c #3A9D3F",
"o  c #48A73B",
"O  c #63BC37",
"+  c #71C635",
"@  c #7BCC39",
"#  c #1E8742",
"$  c #1E8842",
"%  c #1E8843",
"&  c #1E8943",
"*  c #278F46",
"=  c #278F4F",
"-  c #288F4F",
";  c #2C9240",
":  c #27904F",
">  c #28904F",
",  c #2C904F",
"<  c #32954C",
"1  c #3F9C56",
"2  c #31965A",
"3  c #31975A",
"4  c #33975C",
"5  c #3A985B",
"6  c #3A9D66",
"7  c #3C9E67",
"8  c #4DA945",
"9  c #62B650",
"0  c #68B85C",
"q  c #46A365",
"w  c #4EA463",
"e  c #43A470",
"r  c #43A471",
"t  c #55B17E",
"y  c #6BB37C",
"u  c #82D332",
"i  c #8DDB30",
"p  c #8DDB31",
"a  c #8EDB31",
"s  c #8EDB32",
"d  c #8EDB33",
"f  c #8FDC33",
"g  c #8FDC34",
"h  c #8FDD3D",
"j  c #90DC35",
"k  c #90DC36",
"l  c #91DC36",
"z  c #91DC37",
"x  c #91DC38",
"c  c #92DC38",
"v  c #92DD38",
"b  c #92DD39",
"n  c #92DD3A",
"m  c #93DD3A",
"M  c #93DD3B",
"N  c #93DD3C",
"B  c #94DD3C",
"V  c #94DD3D",
"C  c #95DE3E",
"Z  c #95DE3F",
"A  c #89D445",
"S  c #96DE40",
"D  c #96DE41",
"F  c #97DE41",
"G  c #97DE42",
"H  c #97DE43",
"J  c #98DF44",
"K  c #98DF45",
"L  c #99DF45",
"P  c #99DF46",
"I  c #9ADF47",
"U  c #92DE49",
"Y  c #92DF4B",
"T  c #95DB4D",
"R  c #9ADF48",
"E  c #9BDF49",
"W  c #9BE049",
"Q  c #9BE04A",
"!  c #9CE04A",
"~  c #9CE04B",
"^  c #9CE04C",
"/  c #9DE04D",
"(  c #9DE04E",
")  c #9EE04E",
"_  c #9EE04F",
"`  c #94E056",
"'  c #9EE050",
"]  c #9FE150",
"[  c #9FE151",
"{  c #A0E151",
"}  c #A0E152",
"|  c #A0E153",
" . c #A1E153",
".. c #A1E154",
"X. c #A1E155",
"o. c #A2E155",
"O. c #A2E256",
"+. c #A2E257",
"@. c #A3E257",
"#. c #A3E258",
"$. c #A4E259",
"%. c #A4E25A",
"&. c #A5E25B",
"*. c #A5E35C",
"=. c #A6E35C",
"-. c #A6E35D",
";. c #A6E35E",
":. c #A7E35F",
">. c #81C66D",
",. c #8DDB7E",
"<. c #9AD37E",
"1. c #97E263",
"2. c #97E264",
"3. c #9BE263",
"4. c #99E36F",
"5. c #9DE46E",
"6. c #9AE474",
"7. c #9BE57C",
"8. c #9BE57D",
"9. c #A7E360",
"0. c #A1E365",
"q. c #A6E467",
"w. c #A8E361",
"e. c #A8E461",
"r. c #A8E462",
"t. c #A9E462",
"y. c #A9E463",
"u. c #A9E464",
"i. c #AAE464",
"p. c #AAE465",
"a. c #ABE466",
"s. c #ABE566",
"d. c #ABE567",
"f. c #ACE567",
"g. c #A1E46E",
"h. c #A8E469",
"j. c #ACE568",
"k. c #ACE569",
"l. c #ADE569",
"z. c #ADE56A",
"x. c #ADE56B",
"c. c #AEE56B",
"v. c #AEE56C",
"b. c #AEE66C",
"n. c #AFE66D",
"m. c #AFE66E",
"M. c #AFE66F",
"N. c #B0E66F",
"B. c #B0E670",
"V. c #B1E671",
"C. c #B1E772",
"Z. c #B2E773",
"A. c #B2E774",
"S. c #B3E774",
"D. c #B3E775",
"F. c #B3E776",
"G. c #B4E776",
"H. c #B4E777",
"J. c #B5E878",
"K. c #B5E879",
"L. c #B6E87A",
"P. c #B6E87B",
"I. c #B7E87C",
"U. c #B7E87D",
"Y. c #B8E97D",
"T. c #B8E97E",
"R. c #B9E97F",
"E. c #50AC80",
"W. c #57B182",
"Q. c #56B188",
"!. c #56B288",
"~. c #5FB893",
"^. c #66BD92",
"/. c #68BE95",
"(. c #68BE96",
"). c #69BF9F",
"_. c #72C683",
"`. c #6DC391",
"'. c #69C09F",
"]. c #72C499",
"[. c #76CA9D",
"{. c #7DCA98",
"}. c #7BCBA5",
"|. c #79CBA9",
" X c #86C192",
".X c #88C295",
"XX c #9CCE9F",
"oX c #84D49A",
"OX c #86D49D",
"+X c #99DE93",
"@X c #98D79D",
"#X c #92DE98",
"$X c #A8DB8B",
"%X c #97E28A",
"&X c #B9E980",
"*X c #B9E981",
"=X c #BAE981",
"-X c #BAE982",
";X c #BAE983",
":X c #BBEA83",
">X c #BBEA84",
",X c #BCEA85",
"<X c #BCEA86",
"1X c #BDEA86",
"2X c #BDEA87",
"3X c #BDEA88",
"4X c #BEEA88",
"5X c #BEEB89",
"6X c #BFEB8A",
"7X c #BFEB8B",
"8X c #BFEB8C",
"9X c #A5E494",
"0X c #A0E996",
"qX c #A1EA9D",
"wX c #B6E297",
"eX c #B3EC9F",
"rX c #87D5A7",
"tX c #8FD7AE",
"yX c #92D7A3",
"uX c #93D7A5",
"iX c #89D7B4",
"pX c #91DDB4",
"aX c #97E0A1",
"sX c #9BE5A3",
"dX c #97E2B1",
"fX c #9AE3B7",
"gX c #A3EBA6",
"hX c #B4ECA1",
"jX c #B9EDA1",
"kX c #BAEDA4",
"lX c #A3E8B2",
"zX c #AFEDB0",
"xX c #A8EEBE",
"cX c #C0EB8C",
"vX c #C0EB8D",
"bX c #C1EB8E",
"nX c #C1EC8F",
"mX c #C2EC90",
"MX c #C3EC92",
"NX c #C3EC93",
"BX c #C4EC94",
"VX c #C4ED95",
"CX c #C5ED96",
"ZX c #C6ED98",
"AX c #C7ED99",
"SX c #C8EE9B",
"DX c #C9EE9D",
"FX c #C1EDA0",
"GX c #C3EEA3",
"HX c #C9EBAB",
"JX c #D4F2B1",
"KX c #8BD9C0",
/* pixels */
"                                                                                                ",
"                                                                                                ",
"                                                                                                ",
"                                                                                                ",
"                                                                                                ",
"                                                                                                ",
"                                                                                                ",
"                                                                                                ",
"                                                          e sX                                  ",
"                                                        % rXi h xX                              ",
"                                                        e 1.i i h gX                            ",
"                                            # 4 E.    % dXi i i i i qX                          ",
"                                  % % 7 ~._.,.1.i i % Q.U i i i i i i 6.                        ",
"                            % e ).oX%X1.i i i i i   - #Xi i i i i i i i U                       ",
"                          % KX4.i i i i i i i i i % ^.h i i i i i i i i i                       ",
"                        % ).` i i i i i i i i i   = %Xi i i i i i i i i                         ",
"                        - sXi i i i i i i i i   % `.h i i i i i i i i i   L.Y.=X,X5XvXMXVXZXDX  ",
"                      % ).U i i i i i i i i i   3 7.i i i i i i i i i   B.A.L.I.=X>X5XvXMXVXXX% ",
"                      3 0Xi i i i i i i i i   % [.i i i i i i i i i i   x.N.B.G.L.Y.=X,X5XJX5   ",
"                    % |.h i i i i i i i i i   e 2.i i i i i i i i i   y.p.x.m.B.A.L.I.=X>X X%   ",
"                    6 0Xi i i i i i i i i   % OXj f i i i i i i i i   :.9.p.x.x.N.B.G.L.HX,     ",
"                  % iXi i i i i i i i i i   e 3.B b j i i i i i i   | o.$.:.y.p.x.m.B.I..X%     ",
"                  e 7.i i i i i i i i i   % aXP S B b j f i i i i Q ^ ' o.#.:.9.p.f.x.wX%       ",
"                % pXj i i i i i i i i i % t 0.^ R P S B b j i i   S P ~ ^ | o.$.:.y.A.y %       ",
"                Q.5.N b j i i i i i i   > +Xo.' ^ Q P S B b j f b B S P R ^ ' o.#.:.$X%         ",
"              % fXP S B b j g i i i i % (.h.$.o.| ^ ^ R P S B   g b N B S P ~ ^ | x.w           ",
"            % '.g.~ P P S B b j f i   : 9Xp.w.:.$.o.| ^ Q P   i i i j b B S P R ^ <.%           ",
"            > lX| ' ^ Q P S S B b j % ].m.x.p.y.:.$.o.| ' ^   i i i i g b b B S :.1             ",
"          % (.q.$.o.| ^ ^ R P S B   3 hXA.B.m.x.p.w.:.$.o.  i i i i i i i j b B >.%             ",
"          3 zXy.:.:.#.o.| ^ ~ R   % {.Y.L.A.B.m.x.p.y.:.$.  i i i i i i i i g o.<               ",
"        % }.m.x.p.y.:.$.#.o.' ^   e kX=XY.I.L.A.B.m.x.p.  i i i i i i i i i j 0 %               ",
"        3 eXB.m.x.p.p.w.:.$.o.  % uXvX5X,X=XY.L.G.B.m.x.  i i i i i i i i i T *                 ",
"      % tXL.G.A.B.m.x.p.y.9.:.  q FXMXnX5X,X=XY.I.L.A.  i i i i i i i i i j 9 %                 ",
"      e jX=XI.L.G.B.N.m.x.p.      SXZXVXMXvX5X,X=XI.  i i i i i i i i i i A %                   ",
"    % yX5X,X=XY.I.L.A.B.m.m.                          i i i i i i i i i i 8 %                   ",
"    W.FXnX8X5X,X=XY.L.L.A.                            i i i i i i i i i @ %                     ",
"  % @XZXVXMXvX5X,X>X=XY.L.                            i i i i i i i i i X                       ",
"                                                        i i i i i i i + %                       ",
"                                                          i i i i i i .                         ",
"                                                            i i i i O %                         ",
"                                                              i i i ;                           ",
"                                                                u o %                           ",
"                                                                                                ",
"                                                                                                ",
"                                                                                                ",
"                                                                                                ",
"                                                                                                ",
"                                                                                                "
};
