/* XPM */
static char *_926081641104e21f7f9b4e4c704cb0cUbuFMSUGjo9NbAqI[] = {
/* columns rows colors chars-per-pixel */
"32 32 180 2 ",
"   c None",
".  c #34993E",
"X  c #3C9E3D",
"o  c #43A43D",
"O  c #48A73D",
"+  c #56B23A",
"@  c #71C635",
"#  c #71C735",
"$  c #77CB34",
"%  c #7FD132",
"&  c #1E8842",
"*  c #1E8843",
"=  c #1E8943",
"-  c #2A9141",
";  c #2A9044",
":  c #2A9147",
">  c #2C9345",
",  c #389C42",
"<  c #2A9151",
"1  c #2A9252",
"2  c #369750",
"3  c #359556",
"4  c #33985C",
"5  c #33995D",
"6  c #379B62",
"7  c #3EA06A",
"8  c #60B54C",
"9  c #70BD5C",
"0  c #55A867",
"q  c #57A76F",
"w  c #46A574",
"e  c #46A674",
"r  c #54B07C",
"t  c #7BBE7E",
"y  c #81D232",
"u  c #8DDB30",
"i  c #8DDB31",
"p  c #8EDB32",
"a  c #8FDC34",
"s  c #8FDC35",
"d  c #83D23A",
"f  c #8FDD3D",
"g  c #90DC35",
"h  c #90DC36",
"j  c #91DC37",
"k  c #91DD38",
"l  c #92DD39",
"z  c #92DD3A",
"x  c #93DD3A",
"c  c #93DD3B",
"v  c #90DD3F",
"b  c #94DD3C",
"n  c #94DD3D",
"m  c #95DE3E",
"M  c #95DE3F",
"N  c #8ED64A",
"B  c #96DE40",
"V  c #97DE42",
"C  c #97DE43",
"Z  c #98DE43",
"A  c #98DF44",
"S  c #98DF45",
"D  c #99DF45",
"F  c #9ADF47",
"G  c #94DA4B",
"H  c #92DE49",
"J  c #9ADF48",
"K  c #9CE04B",
"L  c #9CE04C",
"P  c #9DE04D",
"I  c #9DE04E",
"U  c #9EE04F",
"Y  c #97E054",
"T  c #94E056",
"R  c #9FE050",
"E  c #9FE150",
"W  c #9FE151",
"Q  c #9CE153",
"!  c #95E059",
"~  c #A0E153",
"^  c #A1E154",
"/  c #A2E256",
"(  c #A3E258",
")  c #A4E259",
"_  c #A4E25A",
"`  c #A1E25D",
"'  c #A5E35C",
"]  c #A6E35D",
"[  c #A6E35E",
"{  c #A7E35F",
"}  c #80C56B",
"|  c #97E263",
" . c #9AE474",
".. c #94E07D",
"X. c #9BE57C",
"o. c #A8E461",
"O. c #A8E462",
"+. c #A9E463",
"@. c #AAE464",
"#. c #AAE465",
"$. c #ABE567",
"%. c #ACE567",
"&. c #ACE568",
"*. c #ADE56A",
"=. c #AEE56C",
"-. c #AEE66D",
";. c #AFE66D",
":. c #AFE66E",
">. c #B0E66F",
",. c #B0E670",
"<. c #B1E670",
"1. c #B2E772",
"2. c #B2E773",
"3. c #B3E774",
"4. c #B3E775",
"5. c #B3E776",
"6. c #B4E778",
"7. c #B5E878",
"8. c #B5E879",
"9. c #B6E87B",
"0. c #B7E87B",
"q. c #B7E87D",
"w. c #B8E87D",
"e. c #B8E97E",
"r. c #50AD80",
"t. c #5DB686",
"y. c #5AB48D",
"u. c #5AB58D",
"i. c #5FB994",
"p. c #6EB482",
"a. c #66BD89",
"s. c #68BE95",
"d. c #79CB82",
"f. c #76C99C",
"g. c #79CA9A",
"h. c #7BCBA4",
"j. c #82D28D",
"k. c #84D49A",
"l. c #92DE98",
"z. c #93DE99",
"x. c #A0D58A",
"c. c #9FE288",
"v. c #9EE789",
"b. c #9FE78E",
"n. c #9BE392",
"m. c #B9E980",
"M. c #B9E981",
"N. c #BAE981",
"B. c #BAE982",
"V. c #BBE983",
"C. c #BBEA84",
"Z. c #BCEA85",
"A. c #BDEA86",
"S. c #BDEA87",
"D. c #BEEA89",
"F. c #BEEB89",
"G. c #BFEB8A",
"H. c #A3E598",
"J. c #A1EA9D",
"K. c #B0EA90",
"L. c #B3EB97",
"P. c #BAEC9A",
"I. c #85D1A2",
"U. c #8EDBA6",
"Y. c #83D2AF",
"T. c #94D7A5",
"R. c #95D7A8",
"E. c #90D8AF",
"W. c #89D7B4",
"Q. c #9FE5A2",
"!. c #BDEDA1",
"~. c #C0EB8C",
"^. c #C1EB8E",
"/. c #C1EC8F",
"(. c #C3EC92",
"). c #C4EC94",
"_. c #CAEE9E",
"`. c #C6EEA2",
"'. c #C0E5A9",
"]. c #C4E7AF",
/* pixels */
"                                                                ",
"                                                                ",
"                                                                ",
"                                                                ",
"                                                                ",
"                                      1 Y.                      ",
"                                      f.f J.                    ",
"                                    5 X.u u b.                  ",
"                      & r.t.d...!   k.u u u u  .                ",
"                  r.j.v.T u u u y w | u u u u u u               ",
"                7 v.u u u u u u - k.u u u u u u                 ",
"                W.u u u u u u $ u.H u u u u u u 3.7.B.S.~.(._.t ",
"              w | u u u u u u & z.u u u u u u P =.<.7.e.C.G.].3 ",
"            & U.u u u u u u # r v u u u u u u [ $.&.<.3.7.G.p.  ",
"            u.| u u u u u u 1 n.l s u u u u A / [ +.$.=.<.'.&   ",
"          & z.u u u u u u + a.Q B m j u u u J P ~ _ [ $.7.q     ",
"          i.T j u u u u u 1 c.Q K A B l s l m A K Q / [ x.&     ",
"        1 Q.A B l j u u o g.[ _ / P J B m u j m B J P =.0       ",
"        s.` P J Z m l j 5 K.%.+.[ / Q K u u u s l m A }         ",
"      6 H._ / Q P A B , I.3.<.&.$.[ _ Q u u u u u j [ 2         ",
"      h.&.+.[ _ / P N w P.e.7.<.=.&.+.u u u u u u u 9           ",
"    5 L.<.=.$.+.[ ( > T.~.S.B.7.3.<.[ u u u u u u G ;           ",
"    E.e.7.3.>.&.$.+.  `.).~.G.B.e.6.u u u u u u u 8             ",
"  w !.S.B.q.7.<.=.                  u u u u u u d ;             ",
"  R.)./.G.S.B.7.                    u u u u u u O               ",
"                                    u u u u u % &               ",
"                                        u u u X                 ",
"                                          u # &                 ",
"                                            .                   ",
"                                                                ",
"                                                                ",
"                                                                "
};
