/* XPM */
static char *_2dc093048d5452ce56fc030a1cb33279H8QtWQWjvlmAstp[] = {
/* columns rows colors chars-per-pixel */
"16 16 74 1 ",
"  c None",
". c #5DB738",
"X c #72C737",
"o c #7DCF33",
"O c #3D9E44",
"+ c #57B35F",
"@ c #5DAF62",
"# c #43A471",
"$ c #72C349",
"% c #6DC36A",
"& c #6DC37B",
"* c #7BCD7E",
"= c #81D232",
"- c #86D531",
"; c #8DDB30",
": c #8EDB31",
"> c #8EDB32",
", c #8FDD3D",
"< c #90DC36",
"1 c #91DC38",
"2 c #92DD38",
"3 c #93DD3A",
"4 c #92DD41",
"5 c #96DE40",
"6 c #97DE41",
"7 c #98DF44",
"8 c #99DF45",
"9 c #9ADF47",
"0 c #9BDF49",
"q c #8FD459",
"w c #9BE04A",
"e c #9CE04B",
"r c #94E056",
"t c #A0E152",
"y c #A1E155",
"u c #A3E258",
"i c #A6E35E",
"p c #A7E35F",
"a c #99D37C",
"s c #97E263",
"d c #A0E362",
"f c #A9E463",
"g c #ABE466",
"h c #AEE56B",
"j c #AFE66D",
"k c #B0E66F",
"l c #B0E670",
"z c #B1E671",
"x c #B4E777",
"c c #71B682",
"v c #72C584",
"b c #72C696",
"n c #72C69D",
"m c #71C69F",
"M c #74C79D",
"N c #82D185",
"B c #81D194",
"V c #9CE183",
"C c #97E28A",
"Z c #9DE09B",
"A c #B6E982",
"S c #B9E980",
"D c #BAE981",
"F c #BAE982",
"G c #BFEB8B",
"H c #B5EB9A",
"J c #86CFA3",
"K c #80CFAA",
"L c #8EDBA6",
"P c #B9E0A9",
"I c #A6EDB7",
"U c #A8EEBE",
"Y c #B6EAB1",
"T c #C5ED95",
/* pixels */
"                ",
"                ",
"                ",
"          bI    ",
"       M*+s,U   ",
"     Lr;-B;;;   ",
"    n,;;%s;;wxDT",
"    C;;oN;;;uglP",
"   n4;;&d6<30yjc",
"   V73XZpt7;37a ",
"  KpyevAkf6;;7@ ",
" #HlgqYGDh;;;$  ",
" JGDx    ;;;;O  ",
"          ;;.   ",
"           =    ",
"                "
};
