<svg width="18" height="17" viewBox="0 0 18 17" fill="none" xmlns="http://www.w3.org/2000/svg">
<g clip-path="url(#clip0_237_521)">
<path opacity="0.695522" fill-rule="evenodd" clip-rule="evenodd" d="M16.8002 14.8L10.1002 7.99999L16.8002 1.19999L17.3002 0.699986L16.8002 0.199986C16.4948 -0.0998651 16.0056 -0.0998651 15.7002 0.199986L9.0002 6.89999L2.3002 0.199986C1.99483 -0.0998651 1.50556 -0.0998651 1.2002 0.199986L0.700195 0.699986L1.2002 1.19999L7.9002 7.99999L1.2002 14.8C0.900344 15.1053 0.900344 15.5946 1.2002 15.9L1.7002 16.4L2.2002 15.9L8.9002 9.09999L15.6002 15.9L16.1002 16.4L16.6002 15.9C17.1002 15.5 17.1002 15 16.8002 14.8Z" fill="white"/>
</g>
<defs>
<clipPath id="clip0_237_521">
<rect width="18" height="17" fill="white"/>
</clipPath>
</defs>
</svg>
