<svg width="24" height="24" viewBox="0 0 24 24" fill="none" xmlns="http://www.w3.org/2000/svg">
<g clip-path="url(#clip0_237_527)">
<path d="M12 2C10.0222 2 8.08879 2.58649 6.4443 3.6853C4.79981 4.78412 3.51809 6.3459 2.76121 8.17317C2.00433 10.0004 1.8063 12.0111 2.19215 13.9509C2.578 15.8907 3.53041 17.6725 4.92894 19.0711C6.32746 20.4696 8.10929 21.422 10.0491 21.8079C11.9889 22.1937 13.9996 21.9957 15.8268 21.2388C17.6541 20.4819 19.2159 19.2002 20.3147 17.5557C21.4135 15.9112 22 13.9778 22 12C22 10.6868 21.7413 9.38642 21.2388 8.17317C20.7363 6.95991 19.9997 5.85752 19.0711 4.92893C18.1425 4.00035 17.0401 3.26375 15.8268 2.7612C14.6136 2.25866 13.3132 2 12 2ZM12 21.25C10.1705 21.25 8.38213 20.7075 6.86098 19.6911C5.33982 18.6747 4.15423 17.23 3.45412 15.5398C2.75401 13.8496 2.57083 11.9897 2.92774 10.1954C3.28465 8.40109 4.16563 6.7529 5.45927 5.45926C6.7529 4.16563 8.4011 3.28465 10.1954 2.92774C11.9897 2.57082 13.8496 2.754 15.5398 3.45411C17.23 4.15423 18.6747 5.33982 19.6911 6.86098C20.7075 8.38213 21.25 10.1705 21.25 12C21.25 14.4533 20.2755 16.806 18.5407 18.5407C16.806 20.2754 14.4533 21.25 12 21.25Z" fill="#187E3C"/>
<path fill-rule="evenodd" clip-rule="evenodd" d="M12 20C16.4183 20 20 16.4183 20 12C20 7.58172 16.4183 4 12 4C7.58172 4 4 7.58172 4 12C4 16.4183 7.58172 20 12 20ZM13.6429 6.86568L15.1764 8.21864C15.2812 8.31016 15.3084 8.46138 15.2385 8.58473L12.4394 13.8613C12.4045 13.9249 12.3462 13.9608 12.2763 13.9608H9.82668C9.78785 13.9608 9.75291 13.9448 9.7335 13.909C9.71021 13.8772 9.71021 13.8374 9.72962 13.8016L13.3867 6.91343C13.41 6.86568 13.4527 6.83384 13.5031 6.82589C13.5536 6.81793 13.6041 6.82987 13.6429 6.86568ZM14.1903 16.1931L12.6568 14.8402C12.552 14.7487 12.5248 14.5974 12.5869 14.4741L15.386 9.19755C15.4209 9.13388 15.4792 9.09806 15.549 9.09806H18.0065C18.0453 9.09806 18.0802 9.11398 18.0997 9.14979C18.123 9.18163 18.123 9.22142 18.1035 9.25724L14.4465 16.1454C14.4232 16.1931 14.3805 16.225 14.33 16.2329C14.2796 16.2409 14.2291 16.229 14.1903 16.1931ZM12.2531 8.02365L8.99977 14.1518L8.62319 14.8561C8.58825 14.9198 8.53002 14.9556 8.46014 14.9556H5.96388C5.9367 14.9556 5.90953 14.9436 5.894 14.9158C5.87847 14.8919 5.87847 14.8601 5.894 14.8322L7.6177 11.5811L9.07353 8.83543C9.18611 8.62453 9.36081 8.48923 9.58986 8.43352L12.1133 7.83663C12.1638 7.82469 12.2104 7.84459 12.2414 7.88438C12.2725 7.92417 12.2763 7.97988 12.2531 8.02365Z" fill="#187E3C"/>
</g>
<defs>
<clipPath id="clip0_237_527">
<rect width="24" height="24" fill="white"/>
</clipPath>
</defs>
</svg>
