<svg width="30" height="30" viewBox="0 0 30 30" fill="none" xmlns="http://www.w3.org/2000/svg">
<g clip-path="url(#clip0_237_635)">
<path d="M15 28C12.4288 28 9.91543 27.2376 7.77759 25.8091C5.63975 24.3807 3.97351 22.3503 2.98957 19.9749C2.00563 17.5995 1.74819 14.9856 2.2498 12.4638C2.75141 9.94208 3.98953 7.6257 5.80762 5.80762C7.6257 3.98953 9.94208 2.75141 12.4638 2.2498C14.9856 1.74819 17.5995 2.00563 19.9749 2.98957C22.3503 3.97351 24.3807 5.63975 25.8091 7.77759C27.2376 9.91543 28 12.4288 28 15C28.0034 16.7082 27.6695 18.4002 27.0174 19.9789C26.3653 21.5577 25.4079 22.9922 24.2 24.2C22.9922 25.4079 21.5577 26.3653 19.9789 27.0174C18.4002 27.6695 16.7082 28.0034 15 28ZM15 4.00001C12.8244 4.00001 10.6977 4.64514 8.88873 5.85384C7.07979 7.06254 5.66989 8.7805 4.83733 10.7905C4.00477 12.8005 3.78693 15.0122 4.21137 17.146C4.63581 19.2798 5.68345 21.2398 7.22183 22.7782C8.76021 24.3166 10.7202 25.3642 12.854 25.7886C14.9878 26.2131 17.1995 25.9952 19.2095 25.1627C21.2195 24.3301 22.9375 22.9202 24.1462 21.1113C25.3549 19.3023 26 17.1756 26 15C26.0042 13.5543 25.7226 12.122 25.1713 10.7855C24.62 9.44901 23.8099 8.2347 22.7876 7.21241C21.7653 6.19013 20.551 5.38003 19.2145 4.82873C17.878 4.27742 16.4457 3.99578 15 4.00001Z" fill="#4A4A4A"/>
<path d="M14.9997 7C14.3413 6.99345 13.6882 7.11831 13.0786 7.36726C12.469 7.61622 11.9152 7.98427 11.4496 8.44987C10.984 8.91547 10.616 9.46928 10.367 10.0789C10.1181 10.6884 9.9932 11.3416 9.99975 12C9.99173 12.1334 10.0121 12.267 10.0595 12.392C10.1069 12.5169 10.1803 12.6304 10.2748 12.7249C10.3693 12.8194 10.4828 12.8928 10.6078 12.9402C10.7327 12.9876 10.8663 13.008 10.9997 13C11.1332 13.008 11.2668 12.9876 11.3917 12.9402C11.5167 12.8928 11.6302 12.8194 11.7247 12.7249C11.8192 12.6304 11.8926 12.5169 11.94 12.392C11.9874 12.267 12.0078 12.1334 11.9997 12C11.9997 11.2044 12.3158 10.4413 12.8784 9.87868C13.441 9.31607 14.2041 9 14.9997 9C15.7954 9 16.5585 9.31607 17.1211 9.87868C17.6837 10.4413 17.9998 11.2044 17.9998 12C18.0214 12.2405 17.9876 12.4828 17.9009 12.7082C17.8143 12.9335 17.677 13.136 17.4997 13.3C17.0997 13.6 16.3997 14.2 15.7997 14.6L14.9997 15.3C14.6829 15.5717 14.4292 15.9094 14.2564 16.2894C14.0837 16.6694 13.9961 17.0826 13.9997 17.5V19C13.9917 19.1334 14.0121 19.267 14.0595 19.392C14.1069 19.5169 14.1803 19.6304 14.2748 19.7249C14.3693 19.8194 14.4828 19.8928 14.6078 19.9402C14.7327 19.9876 14.8663 20.008 14.9997 20H15.9997V17.5C15.9862 17.2817 16.0579 17.0666 16.1998 16.9L16.9997 16.2C17.5997 15.7 18.2998 15.2 18.6998 14.9C19.1224 14.5471 19.4591 14.1025 19.6844 13.6C19.9096 13.0975 20.0175 12.5504 19.9998 12C20.0063 11.3416 19.8814 10.6884 19.6325 10.0789C19.3835 9.46928 19.0155 8.91547 18.5499 8.44987C18.0843 7.98427 17.5305 7.61622 16.9209 7.36726C16.3113 7.11831 15.6582 6.99345 14.9997 7Z" fill="#4A4A4A"/>
<path d="M15 21C14.7348 21 14.4804 21.1053 14.2929 21.2929C14.1054 21.4804 14 21.7348 14 22C14 22.2652 14.1054 22.5196 14.2929 22.7071C14.4804 22.8946 14.7348 23 15 23H16V22C16.008 21.8666 15.9876 21.733 15.9402 21.608C15.8928 21.4831 15.8194 21.3696 15.7249 21.2751C15.6304 21.1806 15.5169 21.1072 15.392 21.0598C15.267 21.0123 15.1334 20.992 15 21Z" fill="#4A4A4A"/>
</g>
<defs>
<clipPath id="clip0_237_635">
<rect width="30" height="30" fill="white"/>
</clipPath>
</defs>
</svg>
