<svg width="24" height="31" viewBox="0 0 24 31" fill="none" xmlns="http://www.w3.org/2000/svg">
<path d="M21.6996 22.6L18.6996 21L21.3996 20.5C21.8996 20.5 22.1996 20 21.8996 19.4C21.8996 18.9 21.3996 18.6 20.7996 18.9L16.4996 20L13.4996 18.4L16.4996 16.8L20.7996 17.9H21.0996C21.3996 17.9 21.8996 17.6 21.8996 17.4C21.8996 16.9 21.5996 16.6 21.3996 16.3L18.6996 15.8L21.6996 14.2C22.1996 13.9 22.1996 13.4 21.9996 13.1C21.6996 12.8 21.1996 12.6 20.8996 12.8L17.8996 14.4L18.6996 12C18.6996 11.5 18.3996 11.2 18.1996 10.9C17.6996 10.9 17.0996 11.2 17.0996 11.4L15.9996 15.3L12.9996 16.9V13.6L16.2996 10.6C16.5996 10.3 16.5996 9.8 16.2996 9.5C15.9996 9.2 15.4996 9.2 14.8996 9.5L13.0996 11.5V8.3C13.0996 7.8 12.7996 7.5 12.2996 7.5C11.7996 7.5 11.4996 7.8 11.4996 8.3V11.5L9.29956 9.4C8.99956 9.1 8.49956 9.1 7.89956 9.4C7.59956 9.7 7.59956 10.2 7.89956 10.5L11.1996 13.5V16.8L8.19956 15.2L7.09956 11.1C7.09956 10.6 6.59956 10.3 5.99956 10.6C5.49956 10.6 5.19956 11.1 5.49956 11.7L6.29956 14.1L3.29956 12.5C2.79956 12.2 2.19956 12.5 2.19956 12.8C1.89956 13.1 2.19956 13.6 2.49956 13.9L5.49956 15.5L2.79956 16C2.29956 16 1.99956 16.5 2.29956 17.1C2.19956 17.2 2.79956 17.5 2.99956 17.5H3.29956L7.59956 16.4L10.5996 18L7.59956 19.6L3.29956 18.5C2.79956 18.5 2.19956 18.8 2.19956 19C2.19956 19.5 2.49956 19.8 2.69956 20.1L5.39956 20.6L2.39956 22.2C1.89956 22.5 1.89956 23 2.09956 23.3C2.39956 23.6 2.59956 23.8 2.89956 23.8C3.19956 23.8 3.19956 23.8 3.39956 23.8L6.09956 22.2L5.29956 24.9C5.29956 25.4 5.59956 25.7 5.79956 26H6.09956C6.39956 26 6.89956 25.7 6.89956 25.5L7.99956 21.4L10.9996 19.8V23.1L7.69956 26.1C7.39956 26.4 7.39956 26.9 7.69956 27.2C7.99956 27.5 8.49956 27.5 9.09956 27.2L10.9996 25.3V28.6C10.9996 29.1 11.2996 29.4 11.7996 29.4C12.2996 29.4 12.5996 29.1 12.5996 28.6V25.3L14.4996 27.2C14.9996 27.5 14.9996 27.5 15.1996 27.5C15.4996 27.5 15.6996 27.5 15.6996 27.2C15.9996 26.9 15.9996 26.4 15.6996 26.1L12.3996 23.1V19.6L15.3996 21.2L16.4996 25.3C16.4996 25.6 16.9996 25.8 17.2996 25.8H17.5996C18.0996 25.8 18.3996 25.3 18.0996 24.7V22.3L21.0996 23.9C21.3996 23.9 21.3996 23.9 21.5996 23.9C21.8996 23.9 22.0996 23.6 22.3996 23.4C22.5996 23.5 22.2996 22.9 21.6996 22.6Z" fill="#8DDB30"/>
</svg>
