<svg width="40" height="26" viewBox="0 0 40 26" fill="none" xmlns="http://www.w3.org/2000/svg">
<path opacity="0.5" fill-rule="evenodd" clip-rule="evenodd" d="M34.0001 11.223C34.0058 12.1439 33.8287 13.0567 33.4789 13.9086C33.1292 14.7604 32.6138 15.5344 31.9626 16.1855C31.3115 16.8367 30.5375 17.3521 29.6857 17.7018C28.8338 18.0516 27.921 18.2287 27.0001 18.223H7.00013C6.07929 18.2287 5.16647 18.0516 4.31461 17.7018C3.46275 17.3521 2.68881 16.8367 2.03766 16.1855C1.38651 15.5344 0.871109 14.7604 0.521348 13.9086C0.171587 13.0567 -0.00557568 12.1439 0.000133728 11.223C-0.00557568 10.3022 0.171587 9.38937 0.521348 8.53751C0.871109 7.68565 1.38651 6.91171 2.03766 6.26056C2.68881 5.60941 3.46275 5.09401 4.31461 4.74425C5.16647 4.39449 6.07929 4.21732 7.00013 4.22303H27.0001C27.921 4.21732 28.8338 4.39449 29.6857 4.74425C30.5375 5.09401 31.3115 5.60941 31.9626 6.26056C32.6138 6.91171 33.1292 7.68565 33.4789 8.53751C33.8287 9.38937 34.0058 10.3022 34.0001 11.223Z" fill="#187E3C"/>
<g filter="url(#filter0_d_237_879)">
<path d="M27 1C28.9778 1 30.9112 1.58649 32.5557 2.6853C34.2002 3.78412 35.4819 5.3459 36.2388 7.17317C36.9957 9.00043 37.1937 11.0111 36.8079 12.9509C36.422 14.8907 35.4696 16.6725 34.0711 18.0711C32.6725 19.4696 30.8907 20.422 28.9509 20.8079C27.0111 21.1937 25.0004 20.9957 23.1732 20.2388C21.3459 19.4819 19.7841 18.2002 18.6853 16.5557C17.5865 14.9112 17 12.9778 17 11C17 8.34784 18.0536 5.8043 19.9289 3.92893C21.8043 2.05357 24.3478 1 27 1Z" fill="#187E3C"/>
</g>
<defs>
<filter id="filter0_d_237_879" x="15" y="1" width="24" height="24" filterUnits="userSpaceOnUse" color-interpolation-filters="sRGB">
<feFlood flood-opacity="0" result="BackgroundImageFix"/>
<feColorMatrix in="SourceAlpha" type="matrix" values="0 0 0 0 0 0 0 0 0 0 0 0 0 0 0 0 0 0 127 0" result="hardAlpha"/>
<feOffset dy="2"/>
<feGaussianBlur stdDeviation="1"/>
<feColorMatrix type="matrix" values="0 0 0 0 0 0 0 0 0 0 0 0 0 0 0 0 0 0 0.239 0"/>
<feBlend mode="normal" in2="BackgroundImageFix" result="effect1_dropShadow_237_879"/>
<feBlend mode="normal" in="SourceGraphic" in2="effect1_dropShadow_237_879" result="shape"/>
</filter>
</defs>
</svg>
