<svg width="40" height="26" viewBox="0 0 40 26" fill="none" xmlns="http://www.w3.org/2000/svg">
<path opacity="0.5" fill-rule="evenodd" clip-rule="evenodd" d="M5.99987 10.777C5.99416 9.85612 6.17132 8.9433 6.52108 8.09144C6.87084 7.23958 7.38624 6.46564 8.03739 5.81449C8.68854 5.16334 9.46249 4.64794 10.3143 4.29818C11.1662 3.94842 12.079 3.77126 12.9999 3.77697L32.9999 3.77697C33.9207 3.77126 34.8335 3.94842 35.6854 4.29818C36.5372 4.64794 37.3112 5.16334 37.9623 5.81449C38.6135 6.46564 39.1289 7.23958 39.4787 8.09144C39.8284 8.9433 40.0056 9.85612 39.9999 10.777C40.0056 11.6978 39.8284 12.6106 39.4787 13.4625C39.1289 14.3143 38.6135 15.0883 37.9623 15.7394C37.3112 16.3906 36.5372 16.906 35.6854 17.2558C34.8335 17.6055 33.9207 17.7827 32.9999 17.777L12.9999 17.777C12.079 17.7827 11.1662 17.6055 10.3143 17.2558C9.46249 16.906 8.68854 16.3906 8.03739 15.7394C7.38624 15.0883 6.87084 14.3143 6.52108 13.4625C6.17132 12.6106 5.99416 11.6978 5.99987 10.777Z" fill="#BABABA"/>
<g filter="url(#filter0_d_237_874)">
<path d="M13 21C11.0222 21 9.08879 20.4135 7.4443 19.3147C5.79981 18.2159 4.51808 16.6541 3.7612 14.8268C3.00433 12.9996 2.80629 10.9889 3.19215 9.0491C3.578 7.10929 4.53041 5.32746 5.92893 3.92893C7.32746 2.53041 9.10929 1.578 11.0491 1.19215C12.9889 0.806294 14.9996 1.00433 16.8268 1.7612C18.6541 2.51808 20.2159 3.79981 21.3147 5.4443C22.4135 7.08879 23 9.02219 23 11C23 13.6522 21.9464 16.1957 20.0711 18.0711C18.1957 19.9464 15.6522 21 13 21Z" fill="#BABABA"/>
</g>
<defs>
<filter id="filter0_d_237_874" x="1" y="1" width="24" height="24" filterUnits="userSpaceOnUse" color-interpolation-filters="sRGB">
<feFlood flood-opacity="0" result="BackgroundImageFix"/>
<feColorMatrix in="SourceAlpha" type="matrix" values="0 0 0 0 0 0 0 0 0 0 0 0 0 0 0 0 0 0 127 0" result="hardAlpha"/>
<feOffset dy="2"/>
<feGaussianBlur stdDeviation="1"/>
<feColorMatrix type="matrix" values="0 0 0 0 0 0 0 0 0 0 0 0 0 0 0 0 0 0 0.239 0"/>
<feBlend mode="normal" in2="BackgroundImageFix" result="effect1_dropShadow_237_874"/>
<feBlend mode="normal" in="SourceGraphic" in2="effect1_dropShadow_237_874" result="shape"/>
</filter>
</defs>
</svg>
