<svg width="24" height="24" viewBox="0 0 24 24" fill="none" xmlns="http://www.w3.org/2000/svg">
<path d="M22.2004 5.80002H18.9004C19.0004 5.30002 19.0004 4.80002 18.8004 4.30002C18.5004 3.60002 18.0004 3.00002 17.2004 2.60002C16.4004 2.20002 15.5004 2.10002 14.7004 2.40002C13.9004 2.70002 13.2004 3.20002 12.8004 3.90002L12.1004 5.00002L11.4004 3.80002C11.0004 3.20002 10.3004 2.70002 9.50039 2.40002C8.60039 2.10002 7.70039 2.20002 7.00039 2.60002C5.60039 3.20002 5.00039 4.50002 5.20039 5.80002H1.90039V10.2H3.80039L3.90039 22H20.2004L20.1004 10.2H22.2004V5.80002ZM14.5004 4.70002C14.7004 4.40002 15.0004 4.20002 15.3004 4.10002C15.6004 4.00002 16.0004 4.10002 16.3004 4.20002C16.6004 4.40002 16.9004 4.60002 17.0004 4.90002C17.0004 5.20002 17.0004 5.50002 16.9004 5.80002H14.0004L14.5004 4.70002ZM7.90039 4.20002C8.10039 4.10002 8.20039 4.10002 8.40039 4.10002C8.50039 4.10002 8.70039 4.10002 8.80039 4.20002C9.10039 4.30002 9.40039 4.50002 9.60039 4.80002L10.2004 5.80002H7.30039C7.00039 5.20002 7.30039 4.50002 7.90039 4.20002ZM18.2004 19.7H5.90039V10.1H18.2004V19.7ZM20.6004 8.80002H3.60039V7.10002H20.6004V8.80002Z" fill="#B6B6B6"/>
<path d="M15.5997 16.4999L14.4997 15.8999L15.4997 15.6999C15.6997 15.6999 15.7997 15.4999 15.6997 15.2999C15.6997 15.0999 15.4997 14.9999 15.2997 15.0999L13.6997 15.4999L12.5997 14.8999L13.6997 14.2999L15.2997 14.6999H15.3997C15.4997 14.6999 15.6997 14.5999 15.6997 14.4999C15.6997 14.2999 15.5997 14.1999 15.4997 14.0999L14.4997 13.8999L15.5997 13.2999C15.7997 13.1999 15.7997 12.9999 15.6997 12.8999C15.5997 12.7999 15.3997 12.6999 15.2997 12.7999L14.1997 13.3999L14.4997 12.4999C14.4997 12.2999 14.3997 12.1999 14.2997 12.0999C14.0997 12.0999 13.8997 12.1999 13.8997 12.2999L13.4997 13.7999L12.3997 14.3999V13.1999L13.5997 12.0999C13.6997 11.9999 13.6997 11.7999 13.5997 11.6999C13.4997 11.5999 13.2997 11.5999 13.0997 11.6999L12.3997 12.3999V11.1999C12.3997 10.9999 12.2997 10.8999 12.0997 10.8999C11.8997 10.8999 11.7997 10.9999 11.7997 11.1999V12.3999L10.9997 11.5999C10.8997 11.4999 10.6997 11.4999 10.4997 11.5999C10.3997 11.6999 10.3997 11.8999 10.4997 11.9999L11.6997 13.0999V14.2999L10.5997 13.6999L10.1997 12.1999C10.1997 11.9999 9.99967 11.8999 9.79967 11.9999C9.59967 11.9999 9.49967 12.1999 9.59967 12.3999L9.89967 13.2999L8.79967 12.6999C8.59967 12.5999 8.39967 12.6999 8.39967 12.7999C8.29967 12.8999 8.39967 13.0999 8.49967 13.1999L9.59967 13.7999L8.59967 13.9999C8.39967 13.9999 8.29967 14.1999 8.39967 14.3999C8.39967 14.4999 8.59967 14.5999 8.69967 14.5999H8.79967L10.3997 14.1999L11.4997 14.7999L10.3997 15.3999L8.79967 14.9999C8.59967 14.9999 8.39967 15.0999 8.39967 15.1999C8.39967 15.3999 8.49967 15.4999 8.59967 15.5999L9.59967 15.7999L8.49967 16.3999C8.29967 16.4999 8.29967 16.6999 8.39967 16.7999C8.49967 16.8999 8.59967 16.9999 8.69967 16.9999C8.79967 16.9999 8.79967 16.9999 8.89967 16.9999L9.89967 16.3999L9.59967 17.3999C9.59967 17.5999 9.69967 17.6999 9.79967 17.7999H9.89967C9.99967 17.7999 10.1997 17.6999 10.1997 17.5999L10.5997 16.0999L11.6997 15.4999V16.6999L10.4997 17.7999C10.3997 17.8999 10.3997 18.0999 10.4997 18.1999C10.5997 18.2999 10.7997 18.2999 10.9997 18.1999L11.6997 17.4999V18.6999C11.6997 18.8999 11.7997 18.9999 11.9997 18.9999C12.1997 18.9999 12.2997 18.8999 12.2997 18.6999V17.4999L12.9997 18.1999C13.0997 18.2999 13.0997 18.2999 13.1997 18.2999C13.2997 18.2999 13.3997 18.2999 13.3997 18.1999C13.4997 18.0999 13.4997 17.8999 13.3997 17.7999L12.1997 16.6999V15.3999L13.2997 15.9999L13.6997 17.4999C13.6997 17.5999 13.8997 17.6999 13.9997 17.6999H14.0997C14.2997 17.6999 14.3997 17.4999 14.2997 17.2999V16.3999L15.3997 16.9999C15.4997 16.9999 15.4997 16.9999 15.5997 16.9999C15.6997 16.9999 15.7997 16.8999 15.8997 16.7999C15.8997 16.7999 15.7997 16.5999 15.5997 16.4999Z" fill="#B6B6B6"/>
</svg>
