<svg width="24" height="24" viewBox="0 0 24 24" fill="none" xmlns="http://www.w3.org/2000/svg">
<path d="M17.8 15.4001L14.7 12.6001L13.2 11.3001C13 11.1001 12.8 11.0001 12.6 10.9001C12.2 10.7001 11.7 10.7001 11.3 10.8001C11.2 10.8001 11.1 10.8001 11 10.9001C10.9 11.0001 10.8 11.1001 10.7 11.2001C10.4 11.7001 10 12.1001 9.5 12.4001C9 12.7001 8.3 12.6001 7.9 12.1001C8.1 11.8001 8.2 11.4001 8.3 11.1001C8.3 10.4001 8.6 9.8001 9 9.3001C9.3 9.0001 9.7 8.8001 10 8.6001L10.3 8.5001C9.4 8.4001 8.5 8.6001 7.8 9.1001L7.5 9.3001C7.3 9.5001 7.1 9.6001 6.8 9.7001C6.5 9.8001 6.2 9.8001 6 9.8001H4C4 9.8001 2.8 9.6001 2.8 9.7001L2.5 14.4001L2.9 14.8001H6.2C6.4 14.3001 6.7 13.9001 7.1 13.7001C7.4 13.6001 7.7 13.6001 8 13.7001C8.1 13.8001 8.3 13.9001 8.3 14.0001C8.5 13.8001 8.8 13.6001 9.1 13.6001C9.4 13.6001 9.7 13.7001 9.9 14.0001C10.1 13.8001 10.4 13.6001 10.7 13.6001C11 13.6001 11.3 13.8001 11.5 14.0001C11.8 13.8001 12.1 13.7001 12.5 13.8001C12.9 13.9001 13.2 14.3001 13.2 14.7001C13.2 14.9001 13.1 15.1001 13 15.3001C12.6 16.0001 12.2 16.6001 11.8 17.3001C12.1 17.7001 12.5 18.0001 13 18.0001C13.2 18.0001 13.3 17.9001 13.4 17.8001C13.4 17.7001 13.4 17.6001 13.4 17.6001C13.4 17.5001 13.3 17.4001 13.2 17.4001L12.5 16.7001L12.8 16.5001L13.6 17.2001C13.8 17.4001 14.1 17.6001 14.4 17.6001C14.6 17.6001 14.7 17.5001 14.8 17.4001C14.9 17.3001 14.9 17.2001 14.9 17.1001C14.8 17.0001 14.8 16.9001 14.6 16.8001L13.6 15.8001V15.7001V15.6001L13.8 15.4001V15.3001L13.9 15.4001C14.4 15.9001 14.9 16.3001 15.4 16.7001C15.6 16.9001 15.9 17.0001 16.2 17.0001C16.4 16.9001 16.6 16.7001 16.5 16.4001C16.4 16.2001 16.3 16.0001 16.1 15.9001L14.6 14.5001L14.9 14.2001V14.3001C15.5 14.8001 16.1 15.4001 16.7 15.9001C16.9 16.1001 17.2 16.2001 17.5 16.3001C17.8 16.4001 18 16.2001 18.1 15.9001C18.2 15.9001 18 15.6001 17.8 15.4001Z" fill="#B6B6B6"/>
<path d="M21.1002 9.9C20.9002 9.9 19.6002 10 19.5002 10H17.1002C16.7002 10 16.3002 10 15.9002 9.9C15.5002 9.8 15.0002 9.5 14.7002 9.2C14.3002 8.9 13.9002 8.7 13.4002 8.6C13.1002 8.5 12.8002 8.5 12.5002 8.5H12.1002C11.9002 8.5 11.7002 8.5 11.5002 8.5C11.2002 8.5 11.0002 8.6 10.7002 8.8C10.5002 8.9 10.3002 9 10.1002 9.1C9.7002 9.2 9.4002 9.5 9.1002 9.8C9.0002 9.9 8.9002 10.2 8.8002 10.4L8.2002 11.7C8.3002 11.8 8.5002 11.8 8.6002 11.8H8.7002C9.1002 11.7 9.4002 11.5 9.6002 11.2L9.8002 11C10.0002 10.7 10.2002 10.5 10.5002 10.3C10.8002 10.1 11.1002 10.1 11.5002 10.1H11.9002C12.1002 10.1 12.4002 10.1 12.6002 10.2C12.8002 10.3 13.0002 10.4 13.2002 10.6L17.7002 14.5C17.8002 14.6 17.9002 14.7 18.0002 14.7H19.5002L21.3002 14.6C21.3002 13.8 21.5002 13 21.4002 12.2C21.3002 11.4 21.1002 10.7 21.1002 9.9Z" fill="#B6B6B6"/>
<path d="M6.50039 16.1001C6.70039 16.2001 6.90039 16.2001 7.10039 16.1001C7.30039 16.0001 7.40039 15.8001 7.50039 15.6001L7.90039 14.8001C7.90039 14.7001 8.00039 14.6001 8.00039 14.4001C8.00039 14.3001 7.80039 14.2001 7.70039 14.1001H7.60039C7.00039 14.1001 6.60039 14.9001 6.40039 15.6001C6.40039 15.7001 6.40039 15.7001 6.40039 15.8001C6.40039 16.0001 6.40039 16.1001 6.50039 16.1001Z" fill="#B6B6B6"/>
<path d="M9.59961 14.6C9.59961 14.4 9.49961 14.2 9.29961 14.2H9.19961H9.09961C8.89961 14.3 8.69961 14.4 8.59961 14.6C8.39961 14.9 8.19961 15.2 7.99961 15.6C7.89961 15.7 7.89961 15.9 7.79961 16C7.69961 16.2 7.59961 16.3 7.59961 16.5C7.59961 16.6 7.59961 16.7 7.69961 16.8C7.79961 16.9 7.89961 16.9 7.99961 16.9C8.09961 16.9 8.29961 16.8 8.39961 16.7C8.49961 16.6 8.49961 16.5 8.59961 16.4L9.09961 15.4L9.29961 15.1C9.39961 15 9.49961 14.8 9.59961 14.6Z" fill="#B6B6B6"/>
<path d="M11.1998 14.5C11.1998 14.4 11.0998 14.3 10.8998 14.3H10.6998C10.3998 14.3 10.0998 14.5 9.8998 15L8.9998 16.6C8.8998 16.8 8.7998 17 8.7998 17.2C8.7998 17.4 8.9998 17.6 9.1998 17.6C9.2998 17.6 9.4998 17.6 9.5998 17.5C9.6998 17.4 9.7998 17.3 9.7998 17.2L11.0998 15C11.1998 14.9 11.1998 14.8 11.1998 14.8C11.2998 14.6 11.2998 14.5 11.1998 14.5Z" fill="#B6B6B6"/>
<path d="M12.4998 14.4001H12.3998C11.9998 14.4001 11.7998 14.8001 11.4998 15.2001L11.3998 15.4001L10.3998 17.2001C10.3998 17.3001 10.2998 17.4001 10.2998 17.5001C10.2998 17.6001 10.2998 17.7001 10.2998 17.8001C10.3998 17.9001 10.3998 18.0001 10.4998 18.0001C10.6998 18.1001 10.8998 18.1001 11.0998 17.9001C11.1998 17.8001 11.2998 17.7001 11.3998 17.5001L12.6998 15.4001C12.7998 15.2001 12.8998 15.0001 12.8998 14.8001C12.7998 14.6001 12.5998 14.4001 12.4998 14.4001Z" fill="#B6B6B6"/>
<path d="M15.8004 9.30005C15.9004 9.20005 16.3004 8.70005 16.3004 8.50005C16.3004 8.40005 16.3004 8.40005 16.3004 8.50005C16.1004 8.50005 15.9004 8.50005 15.7004 8.50005H14.4004C14.8004 8.80005 15.3004 9.10005 15.8004 9.30005Z" fill="#B6B6B6"/>
<path d="M12 22.2C17.5228 22.2 22 17.7228 22 12.2C22 6.6771 17.5228 2.19995 12 2.19995C6.47715 2.19995 2 6.6771 2 12.2C2 17.7228 6.47715 22.2 12 22.2Z" stroke="#B6B6B6" stroke-width="2" stroke-miterlimit="10"/>
</svg>
