<svg width="24" height="24" viewBox="0 0 24 24" fill="none" xmlns="http://www.w3.org/2000/svg">
<path d="M22.2004 5.80002H18.9004C19.0004 5.30002 19.0004 4.80002 18.8004 4.30002C18.5004 3.60002 18.0004 3.00002 17.2004 2.60002C16.4004 2.20002 15.5004 2.10002 14.7004 2.40002C13.9004 2.70002 13.2004 3.20002 12.8004 3.90002L12.1004 5.00002L11.4004 3.80002C11.0004 3.20002 10.3004 2.70002 9.50039 2.40002C8.60039 2.10002 7.70039 2.20002 7.00039 2.60002C5.60039 3.20002 5.00039 4.50002 5.20039 5.80002H1.90039V10.2H3.80039L3.90039 22H20.2004L20.1004 10.2H22.2004V5.80002ZM14.5004 4.70002C14.7004 4.40002 15.0004 4.20002 15.3004 4.10002C15.6004 4.00002 16.0004 4.10002 16.3004 4.20002C16.6004 4.40002 16.9004 4.60002 17.0004 4.90002C17.0004 5.20002 17.0004 5.50002 16.9004 5.80002H14.0004L14.5004 4.70002ZM7.90039 4.20002C8.10039 4.10002 8.20039 4.10002 8.40039 4.10002C8.50039 4.10002 8.70039 4.10002 8.80039 4.20002C9.10039 4.30002 9.40039 4.50002 9.60039 4.80002L10.2004 5.80002H7.30039C7.00039 5.20002 7.30039 4.50002 7.90039 4.20002ZM18.2004 19.7H5.90039V10.1H18.2004V19.7ZM20.6004 8.80002H3.60039V7.10002H20.6004V8.80002Z" fill="#B6B6B6"/>
<path d="M13.7003 13.1999C12.8003 12.0999 11.7003 11.2999 11.2003 10.8999C10.8003 10.5999 10.8003 10.8999 10.8003 10.9999C10.9003 11.4999 11.1003 12.4999 9.70029 14.0999C8.00029 16.3999 9.20029 17.9999 10.4003 18.7999C10.9003 19.1999 11.6003 19.0999 11.6003 19.0999C11.7003 19.0999 11.9003 19.0999 11.9003 18.9999C11.2003 18.5999 9.60029 17.3999 11.8003 14.1999C11.8003 14.1999 11.7003 15.3999 12.2003 15.7999C12.5003 15.8999 13.0003 15.3999 13.0003 15.3999C13.0003 15.3999 14.1003 17.6999 12.5003 18.6999C12.4003 18.6999 12.4003 18.7999 12.2003 18.7999C12.3003 18.8999 12.5003 18.8999 12.5003 18.8999C13.3003 18.8999 14.2003 18.3999 14.8003 17.1999C15.6003 15.8999 14.8003 14.2999 13.7003 13.1999Z" fill="#B6B6B6"/>
</svg>
