<svg width="24" height="24" viewBox="0 0 24 24" fill="none" xmlns="http://www.w3.org/2000/svg">
<path d="M14.9997 10.5001H19.9997V5.50012H17.9997V6.71512C15.5653 3.94883 11.5564 3.20314 8.2902 4.90912C5.02402 6.61509 3.34561 10.3314 4.22519 13.9097C5.10477 17.4881 8.3148 20.0028 11.9997 20.0001C14.1226 20.006 16.1596 19.1623 17.6567 17.6571L16.2427 16.2431C14.4653 18.0237 11.7658 18.5063 9.4816 17.4519C7.19738 16.3975 5.81354 14.03 6.01563 11.5223C6.21772 9.01458 7.96283 6.89926 10.3864 6.22425C12.81 5.54924 15.3974 6.45792 16.8667 8.50012H14.9997V10.5001Z" fill="#8DDB30"/>
</svg>
