<svg width="24" height="24" viewBox="0 0 24 24" fill="none" xmlns="http://www.w3.org/2000/svg">
<g clip-path="url(#clip0_237_1029)">
<path d="M12 16C11.2089 16 10.4355 15.7654 9.77772 15.3259C9.11993 14.8864 8.60723 14.2616 8.30448 13.5307C8.00173 12.7998 7.92252 11.9956 8.07686 11.2196C8.2312 10.4437 8.61216 9.73098 9.17157 9.17157C9.73098 8.61216 10.4437 8.2312 11.2196 8.07686C11.9956 7.92252 12.7998 8.00173 13.5307 8.30448C14.2616 8.60723 14.8864 9.11993 15.3259 9.77772C15.7654 10.4355 16 11.2089 16 12C16.0052 12.5267 15.9053 13.0492 15.7061 13.5369C15.507 14.0245 15.2125 14.4676 14.84 14.84C14.4676 15.2125 14.0245 15.507 13.5369 15.7061C13.0492 15.9053 12.5267 16.0052 12 16ZM12 9.6C11.5253 9.6 11.0613 9.74076 10.6666 10.0045C10.272 10.2682 9.96434 10.643 9.78269 11.0816C9.60104 11.5201 9.55351 12.0027 9.64612 12.4682C9.73872 12.9338 9.9673 13.3614 10.3029 13.6971C10.6386 14.0327 11.0662 14.2613 11.5318 14.3539C11.9973 14.4465 12.4799 14.399 12.9184 14.2173C13.357 14.0357 13.7318 13.728 13.9955 13.3334C14.2592 12.9387 14.4 12.4747 14.4 12C14.4058 11.6832 14.3477 11.3685 14.2292 11.0747C14.1107 10.7809 13.9341 10.514 13.7101 10.29C13.486 10.0659 13.2191 9.88935 12.9253 9.77081C12.6315 9.65226 12.3168 9.59417 12 9.6Z" fill="#707070"/>
<path d="M11.9996 20C7.43762 20 3.66262 17.422 1.06762 12.444C0.990658 12.3085 0.950195 12.1553 0.950195 11.9995C0.950195 11.8437 0.990658 11.6905 1.06762 11.555C3.66262 6.578 7.43762 4 11.9996 4C16.5616 4 20.3366 6.578 22.9316 11.556C23.0086 11.6915 23.049 11.8447 23.049 12.0005C23.049 12.1563 23.0086 12.3095 22.9316 12.445C20.3366 17.422 16.5616 20 11.9996 20ZM2.71962 12C4.29262 14.933 7.19962 18.222 11.9996 18.222C16.7996 18.222 19.7066 14.933 21.2796 12C19.7066 9.067 16.7996 5.778 11.9996 5.778C7.19962 5.778 4.29262 9.067 2.71962 12Z" fill="#707070"/>
</g>
<defs>
<clipPath id="clip0_237_1029">
<rect width="24" height="24" fill="white"/>
</clipPath>
</defs>
</svg>
