<svg width="100" height="100" viewBox="0 0 100 100" fill="none" xmlns="http://www.w3.org/2000/svg">
<g clip-path="url(#clip0_237_1134)">
<path d="M50.001 62C56.6284 62 62.001 56.6274 62.001 50C62.001 43.3726 56.6284 38 50.001 38C43.3736 38 38.001 43.3726 38.001 50C38.001 56.6274 43.3736 62 50.001 62Z" fill="#413D4A"/>
<path d="M50.001 24C54.4193 24 58.001 20.4183 58.001 16C58.001 11.5817 54.4193 8 50.001 8C45.5827 8 42.001 11.5817 42.001 16C42.001 20.4183 45.5827 24 50.001 24Z" fill="#413D4A"/>
<path d="M50.001 92C54.4193 92 58.001 88.4183 58.001 84C58.001 79.5817 54.4193 76 50.001 76C45.5827 76 42.001 79.5817 42.001 84C42.001 88.4183 45.5827 92 50.001 92Z" fill="#413D4A"/>
<path d="M20.5557 41C24.9739 41 28.5557 37.4183 28.5557 33C28.5557 28.5817 24.9739 25 20.5557 25C16.1374 25 12.5557 28.5817 12.5557 33C12.5557 37.4183 16.1374 41 20.5557 41Z" fill="#413D4A"/>
<path d="M79.4453 75C83.8636 75 87.4453 71.4183 87.4453 67C87.4453 62.5817 83.8636 59 79.4453 59C75.027 59 71.4453 62.5817 71.4453 67C71.4453 71.4183 75.027 75 79.4453 75Z" fill="#413D4A"/>
<path d="M20.5557 75C24.9739 75 28.5557 71.4183 28.5557 67C28.5557 62.5817 24.9739 59 20.5557 59C16.1374 59 12.5557 62.5817 12.5557 67C12.5557 71.4183 16.1374 75 20.5557 75Z" fill="#413D4A"/>
<path d="M79.4453 41C83.8636 41 87.4453 37.4183 87.4453 33C87.4453 28.5817 83.8636 25 79.4453 25C75.027 25 71.4453 28.5817 71.4453 33C71.4453 37.4183 75.027 41 79.4453 41Z" fill="#413D4A"/>
<path d="M83.9454 59.206C82.87 58.5882 81.6783 58.1997 80.4454 58.065V48H78.4454V58.066C77.2144 58.206 76.0254 58.5979 74.9524 59.2172C73.8794 59.8366 72.9454 60.6701 72.2084 61.666L61.7084 55.605C62.5567 53.858 62.9974 51.9412 62.9974 49.999C62.9974 48.0569 62.5567 46.1401 61.7084 44.393L72.2084 38.332C72.9452 39.3278 73.8791 40.1613 74.952 40.7806C76.0248 41.4 77.2136 41.7919 78.4444 41.932V44H80.4444V41.936C81.9312 41.7714 83.3536 41.2388 84.5828 40.3863C85.8121 39.5339 86.8095 38.3885 87.4848 37.0536C88.1601 35.7188 88.4921 34.2367 88.4506 32.7414C88.4092 31.2461 87.9957 29.7846 87.2475 28.4893C86.4993 27.1939 85.44 26.1054 84.1655 25.3224C82.8909 24.5393 81.4412 24.0862 79.9475 24.0042C78.4539 23.9222 76.9633 24.2138 75.6107 24.8526C74.258 25.4915 73.0859 26.4574 72.2004 27.663L58.2424 19.6C58.8432 18.2302 59.0932 16.7323 58.9697 15.2416C58.8461 13.7509 58.353 12.3145 57.5349 11.0623C56.7167 9.81007 55.5994 8.7815 54.2839 8.06959C52.9684 7.35767 51.4962 6.98486 50.0004 6.98486C48.5046 6.98486 47.0324 7.35767 45.7169 8.06959C44.4014 8.7815 43.2841 9.81007 42.4659 11.0623C41.6478 12.3145 41.1547 13.7509 41.0311 15.2416C40.9076 16.7323 41.1576 18.2302 41.7584 19.6L27.8004 27.663C26.9149 26.4574 25.7428 25.4915 24.3901 24.8526C23.0375 24.2138 21.5469 23.9222 20.0533 24.0042C18.5596 24.0862 17.1099 24.5393 15.8353 25.3224C14.5608 26.1054 13.5015 27.1939 12.7533 28.4893C12.0051 29.7846 11.5916 31.2461 11.5502 32.7414C11.5087 34.2367 11.8407 35.7188 12.516 37.0536C13.1913 38.3885 14.1887 39.5339 15.4179 40.3863C16.6472 41.2388 18.0696 41.7714 19.5564 41.936V52H21.5564V41.934C22.7873 41.7938 23.9762 41.4018 25.0492 40.7825C26.1222 40.1632 27.0563 39.3298 27.7934 38.334L38.2934 44.394C37.4451 46.1415 37.0044 48.0586 37.0044 50.001C37.0044 51.9435 37.4451 53.8606 38.2934 55.608L27.7934 61.668C27.0564 60.6721 26.1224 59.8386 25.0494 59.2192C23.9764 58.5999 22.7874 58.208 21.5564 58.068V56H19.5564V58.065C18.0695 58.2295 16.647 58.7621 15.4176 59.6145C14.1882 60.4669 13.1907 61.6124 12.5153 62.9473C11.8399 64.2821 11.5079 65.7643 11.5494 67.2598C11.5908 68.7552 12.0043 70.2167 12.7526 71.5121C13.5009 72.8076 14.5603 73.896 15.835 74.6791C17.1097 75.4621 18.5595 75.9151 20.0533 75.997C21.547 76.0789 23.0377 75.7871 24.3903 75.1481C25.743 74.509 26.915 73.5429 27.8004 72.337L41.7584 80.4C41.1576 81.7698 40.9076 83.2678 41.0311 84.7585C41.1547 86.2492 41.6478 87.6856 42.4659 88.9378C43.2841 90.19 44.4014 91.2186 45.7169 91.9305C47.0324 92.6424 48.5046 93.0152 50.0004 93.0152C51.4962 93.0152 52.9684 92.6424 54.2839 91.9305C55.5994 91.2186 56.7167 90.19 57.5349 88.9378C58.353 87.6856 58.8461 86.2492 58.9697 84.7585C59.0932 83.2678 58.8432 81.7698 58.2424 80.4L72.2004 72.337C72.9938 73.4151 74.0177 74.3026 75.1975 74.9349C76.3773 75.5671 77.6833 75.9283 79.0203 75.9921C80.3573 76.0558 81.6918 75.8205 82.9263 75.3033C84.1609 74.7861 85.2646 74 86.157 73.0023C87.0494 72.0047 87.708 70.8205 88.0848 69.5361C88.4617 68.2517 88.5473 66.8994 88.3354 65.5777C88.1235 64.256 87.6195 62.9983 86.8601 61.896C86.1006 60.7938 85.1049 59.8748 83.9454 59.206ZM50.0004 61C47.8248 61 45.6981 60.3549 43.8891 59.1462C42.0802 57.9375 40.6703 56.2195 39.8377 54.2095C39.0052 52.1996 38.7873 49.9878 39.2118 47.854C39.6362 45.7202 40.6838 43.7602 42.2222 42.2219C43.7606 40.6835 45.7206 39.6358 47.8544 39.2114C49.9882 38.787 52.1999 39.0048 54.2099 39.8374C56.2199 40.6699 57.9379 42.0798 59.1466 43.8888C60.3553 45.6977 61.0004 47.8244 61.0004 50C60.997 52.9164 59.8369 55.7123 57.7748 57.7744C55.7126 59.8366 52.9167 60.9966 50.0004 61ZM75.9454 26.938C77.3479 26.1282 78.9878 25.8297 80.5857 26.0934C82.1836 26.3571 83.6406 27.1667 84.7085 28.3843C85.7764 29.6019 86.389 31.152 86.4421 32.7707C86.4951 34.3893 85.9853 35.9763 84.9994 37.2612C84.0135 38.546 82.6126 39.4493 81.0354 39.8171C79.4582 40.1849 77.8023 39.9944 76.3498 39.2781C74.8973 38.5618 73.7381 37.364 73.0697 35.8888C72.4014 34.4136 72.2652 32.7524 72.6844 31.188C72.9216 30.2999 73.3318 29.4673 73.8913 28.738C74.4509 28.0087 75.149 27.3971 75.9454 26.938ZM50.0004 9.00003C51.3849 9.00003 52.7382 9.41057 53.8894 10.1797C55.0405 10.9489 55.9377 12.0422 56.4676 13.3212C56.9974 14.6003 57.136 16.0078 56.8659 17.3657C56.5958 18.7235 55.9291 19.9708 54.9501 20.9498C53.9712 21.9287 52.7239 22.5954 51.366 22.8655C50.0082 23.1356 48.6007 22.997 47.3216 22.4672C46.0425 21.9374 44.9493 21.0402 44.1801 19.889C43.4109 18.7379 43.0004 17.3845 43.0004 16C43.0025 14.1442 43.7407 12.3649 45.053 11.0526C46.3653 9.74033 48.1445 9.00215 50.0004 9.00003ZM26.6174 36.5C25.9251 37.6988 24.8929 38.6654 23.6513 39.2776C22.4097 39.8898 21.0145 40.1201 19.642 39.9395C18.2696 39.7588 16.9815 39.1752 15.9406 38.2626C14.8998 37.3499 14.1529 36.1491 13.7944 34.812C13.554 33.9243 13.492 32.9977 13.6122 32.0859C13.7323 31.1741 14.0322 30.2952 14.4944 29.5C15.4227 27.8923 16.9516 26.7192 18.7448 26.2387C20.538 25.7583 22.4486 26.0098 24.0564 26.938C25.6639 27.8665 26.8368 29.3955 27.3171 31.1887C27.7974 32.9819 27.5457 34.8924 26.6174 36.5ZM28.7984 36.6C29.6224 34.7317 29.7816 32.6375 29.2494 30.666C29.129 30.2317 28.9765 29.8069 28.7934 29.395L42.7664 21.327C43.5001 22.3267 44.4327 23.1638 45.5056 23.7858C46.5784 24.4077 47.7683 24.8011 49.0004 24.941V28H51.0004V24.941C52.2322 24.8015 53.4219 24.4088 54.4947 23.7876C55.5675 23.1664 56.5003 22.33 57.2344 21.331L71.2074 29.4C71.0244 29.8123 70.872 30.2374 70.7514 30.672C70.22 32.6414 70.3785 34.7332 71.2004 36.6L60.7184 42.657C59.6199 41.0563 58.1769 39.7218 56.4953 38.7517C54.8136 37.7817 52.936 37.2005 51.0004 37.051V32H49.0004V37.051C47.0648 37.2005 45.1872 37.7817 43.5055 38.7517C41.8239 39.7218 40.3808 41.0563 39.2824 42.657L28.7984 36.6ZM24.0554 73.062C22.6529 73.8719 21.013 74.1704 19.4151 73.9067C17.8172 73.643 16.3602 72.8333 15.2923 71.6158C14.2244 70.3982 13.6118 68.848 13.5587 67.2294C13.5057 65.6107 14.0155 64.0238 15.0014 62.7389C15.9873 61.454 17.3882 60.5507 18.9654 60.183C20.5426 59.8152 22.1985 60.0057 23.651 60.722C25.1035 61.4383 26.2627 62.6361 26.9311 64.1113C27.5994 65.5864 27.7356 67.2477 27.3164 68.812C27.079 69.7001 26.6688 70.5325 26.1092 71.2618C25.5496 71.9911 24.8517 72.6028 24.0554 73.062ZM50.0004 91C48.6159 91 47.2625 90.5895 46.1114 89.8203C44.9603 89.0512 44.0631 87.9579 43.5332 86.6788C43.0034 85.3997 42.8648 83.9923 43.1349 82.6344C43.405 81.2765 44.0717 80.0293 45.0506 79.0503C46.0296 78.0713 47.2769 77.4046 48.6348 77.1345C49.9926 76.8644 51.4001 77.0031 52.6792 77.5329C53.9583 78.0627 55.0515 78.9599 55.8207 80.111C56.5899 81.2622 57.0004 82.6156 57.0004 84C56.9983 85.8559 56.2601 87.6351 54.9478 88.9474C53.6355 90.2597 51.8563 90.9979 50.0004 91ZM57.2344 78.669C56.5003 77.6701 55.5675 76.8337 54.4947 76.2125C53.4219 75.5912 52.2322 75.1985 51.0004 75.059V72H49.0004V75.059C47.7687 75.1985 46.5791 75.5911 45.5063 76.2122C44.4335 76.8332 43.5007 77.6693 42.7664 78.668L28.7934 70.6C28.9765 70.1878 29.129 69.7627 29.2494 69.328C29.781 67.3587 29.6226 65.2668 28.8004 63.4L39.2854 57.347C40.384 58.9467 41.8267 60.2801 43.5078 61.2495C45.1888 62.2188 47.0656 62.7996 49.0004 62.949V68H51.0004V62.949C52.936 62.7995 54.8136 62.2184 56.4953 61.2483C58.1769 60.2782 59.6199 58.9438 60.7184 57.343L71.2004 63.4C70.3764 65.268 70.2172 67.3619 70.7494 69.333C70.8698 69.7677 71.0223 70.1929 71.2054 70.605L57.2344 78.669ZM85.5074 70.5C84.5791 72.1077 83.0502 73.2809 81.257 73.7613C79.4638 74.2418 77.5531 73.9902 75.9454 73.062C74.3377 72.1337 73.1646 70.6048 72.6841 68.8116C72.2036 67.0184 72.4552 65.1078 73.3834 63.5C74.3183 61.9054 75.8459 60.7452 77.633 60.2728C79.42 59.8003 81.3214 60.0539 82.9223 60.9781C84.5231 61.9024 85.6933 63.4223 86.1776 65.2062C86.662 66.9901 86.421 68.8931 85.5074 70.5Z" fill="#A09EA5"/>
</g>
<defs>
<clipPath id="clip0_237_1134">
<rect width="100" height="100" fill="white"/>
</clipPath>
</defs>
</svg>
