<svg width="73" height="73" viewBox="0 0 73 73" fill="none" xmlns="http://www.w3.org/2000/svg">
<g clip-path="url(#clip0_237_129)">
<g opacity="0.999">
<path d="M34.6808 10.353V3.40001C33.5458 3.40001 32.5098 3.40001 31.4738 3.44901C31.3738 3.44901 31.1288 3.79401 31.1288 3.99101C31.0798 4.92801 31.1288 5.86401 31.1288 6.85001H27.7288V0H38.0888V6.90001H41.6408V0H45.0408V10.353H41.5878V17.353H44.9878V31.153H48.4878V27.8H51.8878V34.653H41.5878V38.548C41.5878 39.287 41.5388 40.076 41.5878 40.816C41.6368 41.408 41.3878 41.605 40.7988 41.555C39.9108 41.506 39.0718 41.555 38.0358 41.555V45.105H34.6358V48.505C33.6488 48.505 32.7118 48.554 31.8238 48.505C31.2808 48.505 31.1328 48.653 31.1328 49.195C31.1818 50.132 31.1328 51.019 31.1328 52.005H34.6848V55.456H27.7758V45.156H31.1758V41.705H34.6288V34.805H31.1758V41.605H27.7758V31.354H31.1308V27.8H27.6758V21H31.0758C31.0758 21.887 31.1248 22.775 31.0758 23.662C31.0268 24.303 31.2238 24.5 31.8648 24.451C32.8018 24.402 33.6898 24.451 34.6278 24.451V31.251H38.0278V24.4C39.0148 24.4 40.0008 24.351 40.9878 24.4C41.4318 24.4 41.5798 24.252 41.5798 23.808V21.4C41.5798 20.956 41.4318 20.808 40.9878 20.808H38.0768V10.451C36.9484 10.3208 35.8109 10.2874 34.6768 10.351L34.6808 10.353Z" fill="white"/>
<path d="M24.272 0C24.272 0.3 24.223 0.592012 24.223 0.937012V23.319C24.223 24.059 24.023 24.206 23.335 24.206C15.886 24.157 8.38705 24.206 0.935051 24.206C0.635051 24.206 0.343047 24.255 -0.00195312 24.255V0H24.272ZM20.72 3.451C20.473 3.451 20.276 3.40201 20.079 3.40201H4.09505C3.50305 3.40201 3.40405 3.60201 3.40405 4.14201V20.115C3.40405 20.315 3.45305 20.509 3.45305 20.707H20.72V3.451Z" fill="white"/>
<path d="M72.6666 24.255C72.3666 24.255 72.0746 24.206 71.7296 24.206H49.3296C48.5896 24.206 48.4416 24.006 48.4416 23.319C48.4906 15.875 48.4416 8.38101 48.4416 0.937012C48.4416 0.637012 48.3926 0.345 48.3926 0H72.6646L72.6666 24.255ZM69.2136 20.705C69.2136 20.405 69.2626 20.163 69.2626 19.916V4.19C69.2626 3.5 69.0156 3.401 68.4236 3.401H51.9466V20.701L69.2136 20.705Z" fill="white"/>
<path d="M0 48.3621C0.3 48.3621 0.592004 48.4111 0.937004 48.4111H23.383C24.123 48.4111 24.271 48.6111 24.271 49.2981C24.222 56.7911 24.271 64.2361 24.271 71.7291C24.271 72.0291 24.32 72.321 24.32 72.666H0.0490036C3.60236e-06 64.532 0 56.4471 0 48.3621ZM20.72 51.912C20.52 51.912 20.42 51.8631 20.276 51.8631H4.04601C3.45401 51.8631 3.405 52.1631 3.405 52.6021V68.4271C3.405 69.0681 3.605 69.2651 4.244 69.2651C9.47334 69.2157 14.7027 69.2157 19.932 69.2651C20.623 69.2651 20.82 69.1171 20.82 68.4271C20.771 63.2011 20.82 57.9761 20.82 52.7501C20.769 52.4541 20.769 52.207 20.72 51.912Z" fill="white"/>
<path d="M0 27.657H3.355V44.957H0V27.657Z" fill="white"/>
<path d="M72.6666 31.057H65.8096V27.657H72.6666V31.057Z" fill="white"/>
<path d="M48.3912 65.666V72.6169H44.9912C44.9912 70.2999 45.0402 67.9829 45.0402 65.6169H44.9912C46.1262 65.6659 47.2602 65.666 48.3912 65.666Z" fill="white"/>
<path d="M27.6758 72.6161V69.2161H34.6318V72.6161H27.6758Z" fill="white"/>
<path d="M72.6627 69.215H69.2627V65.666H72.6627V69.215Z" fill="white"/>
<path d="M72.6675 38.0079H69.3125V34.6079H72.6675V38.0079Z" fill="white"/>
<path d="M72.6627 58.713H69.2627V55.313H72.6627V58.713Z" fill="white"/>
<path d="M55.3506 72.6161V69.2161H58.7506V72.6161H55.3506Z" fill="white"/>
<path d="M55.3509 69.2151H51.9509V65.662H48.3509C48.3999 64.134 48.3999 62.6051 48.4509 61.0771V58.7621H41.5869V55.3621H51.8969V48.3621H55.2519V51.8621H58.7049C58.7049 52.2071 58.7539 52.5031 58.7539 52.7491V58.123C58.7539 58.665 58.9019 58.813 59.4449 58.813H69.1139V62.2131H55.3019C55.3509 64.6311 55.3509 66.9481 55.3509 69.2151Z" fill="white"/>
<path d="M62.3071 44.9599V41.5089H55.4001V44.9599H51.9471V41.4599H48.4941C48.4941 40.3749 48.4942 39.3399 48.5432 38.3539C48.5432 38.2539 48.9381 38.0539 49.1841 38.0539H58.9021V27.7549H62.3021V34.6079H65.7021V45.0079C64.5761 44.9599 63.4421 44.9599 62.3071 44.9599Z" fill="white"/>
<path d="M34.6314 69.2159V65.6639H27.7744V58.8109H34.6314V55.2639H38.0314V58.7639C38.9684 58.7639 39.8564 58.8129 40.7444 58.7639C41.3364 58.7149 41.5334 58.9119 41.5334 59.5039C41.4844 60.3909 41.5334 61.2289 41.5334 62.1659H38.0804V69.1659C36.8514 69.2159 35.7664 69.2159 34.6314 69.2159Z" fill="white"/>
<path d="M37.9864 45.009H41.4864V48.409H44.9394V51.809H38.0324C38.0324 49.492 38.0324 47.224 37.9834 45.009H37.9864Z" fill="white"/>
<path d="M62.3033 51.9119H58.9033V44.9609H62.3033V51.9119Z" fill="white"/>
<path d="M69.3124 55.3121H62.3564V51.9121H69.3124V55.3121Z" fill="white"/>
<path d="M51.9471 44.9609V48.3609H48.4941V44.9609H51.9471Z" fill="white"/>
<path d="M44.9419 44.9079H41.5869V41.6079H44.9419V44.9079Z" fill="white"/>
<path d="M45.0367 65.6631H41.6367V62.363H45.0367C44.9877 63.4625 44.9877 64.5636 45.0367 65.6631Z" fill="white"/>
<path d="M20.6701 37.9591C20.6701 38.9451 20.7191 39.9311 20.7191 40.9171C20.7191 41.3611 20.8671 41.5581 21.3111 41.5091C22.2481 41.4601 23.1361 41.5091 24.1231 41.5091V44.8591H6.95605V41.5071H10.3111V34.5591H17.2671V37.9111C18.3982 38.0005 19.5338 38.0168 20.6671 37.9601L20.6701 37.9591Z" fill="white"/>
<path d="M10.3599 34.606H7.00488V27.7061H13.7639V31.006H10.3639C10.3148 32.2055 10.3148 33.4065 10.3639 34.606H10.3599Z" fill="white"/>
<path d="M27.6762 27.6069V31.0069H17.3652V27.6069C20.8182 27.6559 24.2222 27.6559 27.6762 27.6069Z" fill="white"/>
<path d="M34.6316 10.303V13.703H27.7246V10.303C30.0436 10.352 32.3616 10.352 34.6316 10.303Z" fill="white"/>
<path d="M34.6309 24.2561V20.7061H37.9859V24.2561H34.6309Z" fill="white"/>
<path d="M20.6699 38.009V34.657H24.1229V37.957C22.9879 37.957 21.8039 37.957 20.6699 38.006V38.009Z" fill="white"/>
<path d="M65.6614 69.1169H62.3564V65.7649H65.6614V69.1169Z" fill="white"/>
<path d="M17.2659 7V17.2H7.00488V7H17.2659Z" fill="white"/>
<path d="M55.4502 6.95093H65.7112V17.2049H55.4502V6.95093Z" fill="white"/>
<path d="M17.2169 65.6661H7.00488V55.4121H17.2169V65.6661Z" fill="white"/>
</g>
</g>
<defs>
<clipPath id="clip0_237_129">
<rect width="72.667" height="72.667" fill="white"/>
</clipPath>
</defs>
</svg>
