<svg width="49" height="60" viewBox="0 0 49 60" fill="none" xmlns="http://www.w3.org/2000/svg">
<path fill-rule="evenodd" clip-rule="evenodd" d="M35.3899 18.7434L30.0457 14.1433C29.9104 14.0215 29.7345 13.981 29.5586 14.008C29.3827 14.0351 29.2339 14.1433 29.1527 14.3057L16.4078 37.7254C16.3402 37.8472 16.3402 37.9825 16.4214 38.0907C16.489 38.2125 16.6108 38.2666 16.7461 38.2666H25.2833C25.5268 38.2666 25.7297 38.1448 25.8515 37.9283L35.6063 19.9881C35.8499 19.5687 35.7552 19.0546 35.3899 18.7434ZM26.6092 41.2566L31.9533 45.8567C32.0886 45.9785 32.2645 46.019 32.4404 45.992C32.6163 45.9649 32.7651 45.8567 32.8463 45.6943L45.5912 22.2746C45.6588 22.1528 45.6588 22.0175 45.5777 21.9093C45.51 21.7875 45.3882 21.7334 45.2529 21.7334H36.6887C36.4452 21.7334 36.2422 21.8552 36.1205 22.0717L26.3656 40.0119C26.1491 40.4313 26.2439 40.9454 26.6092 41.2566ZM13.8643 38.916L25.2021 18.0804C25.2833 17.9316 25.2697 17.7422 25.1615 17.6069C25.0532 17.4716 24.8909 17.4039 24.715 17.4445L15.9208 19.474C15.1225 19.6634 14.5137 20.1234 14.1213 20.8405L9.04773 30.1759L3.04059 41.2296C2.98647 41.3243 2.98647 41.4325 3.04059 41.5137C3.09471 41.6084 3.18941 41.649 3.28412 41.649H11.9837C12.2272 41.649 12.4301 41.5272 12.5519 41.3107L13.8643 38.916Z" fill="white"/>
</svg>
