<svg width="100" height="100" viewBox="0 0 100 100" fill="none" xmlns="http://www.w3.org/2000/svg">
<g clip-path="url(#clip0_237_63)">
<path d="M50 26C45.2533 26 40.6131 27.4076 36.6663 30.0447C32.7195 32.6819 29.6434 36.4302 27.8269 40.8156C26.0104 45.201 25.5351 50.0266 26.4612 54.6822C27.3872 59.3377 29.673 63.6141 33.0294 66.9706C36.3859 70.327 40.6623 72.6128 45.3178 73.5388C49.9734 74.4649 54.799 73.9896 59.1844 72.1731C63.5698 70.3566 67.3181 67.2805 69.9553 63.3337C72.5924 59.3869 74 54.7468 74 50C74 43.6348 71.4715 37.5303 66.9706 33.0294C62.4697 28.5286 56.3652 26 50 26ZM50 68C46.4399 68 42.9598 66.9443 39.9997 64.9665C37.0397 62.9886 34.7326 60.1774 33.3702 56.8883C32.0078 53.5992 31.6513 49.98 32.3459 46.4884C33.0404 42.9967 34.7547 39.7894 37.2721 37.2721C39.7894 34.7547 42.9967 33.0404 46.4884 32.3459C49.98 31.6513 53.5992 32.0078 56.8883 33.3702C60.1774 34.7325 62.9886 37.0397 64.9665 39.9997C66.9443 42.9598 68 46.4399 68 50C68 54.7739 66.1036 59.3523 62.7279 62.7279C59.3523 66.1036 54.7739 68 50 68Z" fill="#413D4A"/>
<path d="M50 31C46.2422 31 42.5687 32.1143 39.4442 34.2021C36.3196 36.2898 33.8844 39.2572 32.4463 42.729C31.0082 46.2008 30.632 50.0211 31.3651 53.7067C32.0982 57.3924 33.9078 60.7778 36.565 63.435C39.2222 66.0922 42.6077 67.9018 46.2933 68.6349C49.9789 69.368 53.7992 68.9918 57.271 67.5537C60.7428 66.1156 63.7102 63.6804 65.7979 60.5558C67.8857 57.4313 69 53.7578 69 50C68.9944 44.9626 66.9909 40.1331 63.4289 36.5711C59.8669 33.0091 55.0374 31.0056 50 31ZM50 67C46.6377 67 43.3509 66.003 40.5553 64.135C37.7597 62.267 35.5807 59.612 34.2941 56.5056C33.0074 53.3993 32.6707 49.9811 33.3267 46.6835C33.9826 43.3858 35.6017 40.3567 37.9792 37.9792C40.3567 35.6017 43.3858 33.9826 46.6835 33.3266C49.9811 32.6707 53.3993 33.0074 56.5056 34.294C59.612 35.5807 62.267 37.7597 64.135 40.5553C66.003 43.3509 67 46.6377 67 50C66.995 54.5071 65.2023 58.8282 62.0153 62.0153C58.8282 65.2023 54.5071 66.995 50 67Z" fill="#A09EA5"/>
<path d="M83 56H85V60H83V56Z" fill="#A09EA5"/>
<path d="M83 44H85V52H83V44Z" fill="#A09EA5"/>
<path d="M15 48H17V56H15V48Z" fill="#A09EA5"/>
<path d="M15 40H17V44H15V40Z" fill="#A09EA5"/>
<path d="M95.1619 71.0001H84.9999V64.0001H82.9999V73.0001H90.8379L75.9999 90.4561L61.1619 73.0001H67.9999V71.0001H63.5389C68.7346 67.6579 72.5081 62.5097 74.1312 56.549C75.7543 50.5882 75.1119 44.2375 72.3279 38.7226C69.544 33.2077 64.8159 28.9194 59.0561 26.6855C53.2964 24.4516 46.9133 24.4305 41.1389 26.6261L23.9999 6.45605L4.83789 29.0001H14.9999V36.0001H16.9999V27.0001H9.16189L23.9999 9.54405L38.8379 27.0001H31.9999V29.0001H36.4609C31.2652 32.3422 27.4917 37.4904 25.8686 43.4512C24.2455 49.4119 24.8879 55.7626 27.6719 61.2775C30.4558 66.7924 35.1839 71.0807 40.9437 73.3146C46.7034 75.5485 53.0864 75.5697 58.8609 73.3741L75.9999 93.5441L95.1619 71.0001ZM26.9999 50.0001C26.9999 45.4511 28.3488 41.0043 30.8761 37.2219C33.4034 33.4396 36.9955 30.4916 41.1982 28.7508C45.4009 27.01 50.0254 26.5545 54.487 27.442C58.9485 28.3295 63.0467 30.52 66.2633 33.7366C69.48 36.9532 71.6705 41.0514 72.558 45.513C73.4454 49.9745 72.9899 54.5991 71.2491 58.8018C69.5083 63.0045 66.5603 66.5966 62.778 69.1239C58.9957 71.6511 54.5489 73.0001 49.9999 73.0001C43.902 72.9932 38.0559 70.5678 33.744 66.2559C29.4322 61.9441 27.0068 56.0979 26.9999 50.0001Z" fill="#A09EA5"/>
<path fill-rule="evenodd" clip-rule="evenodd" d="M55.7113 44.3915L52.954 42.0723C52.8842 42.0109 52.7935 41.9904 52.7027 42.004C52.612 42.0177 52.5352 42.0723 52.4933 42.1541L45.9177 53.9616C45.8828 54.0229 45.8828 54.0912 45.9247 54.1457C45.9596 54.2071 46.0224 54.2344 46.0922 54.2344H50.4969C50.6225 54.2344 50.7273 54.173 50.7901 54.0639L55.823 45.019C55.9487 44.8075 55.8998 44.5483 55.7113 44.3915ZM51.181 55.7419L53.9383 58.0611C54.0081 58.1225 54.0988 58.1429 54.1896 58.1293C54.2803 58.1157 54.3571 58.0611 54.399 57.9792L60.9746 46.1718C61.0095 46.1104 61.0095 46.0422 60.9677 45.9876C60.9328 45.9262 60.8699 45.8989 60.8001 45.8989H56.3815C56.2558 45.8989 56.1511 45.9603 56.0883 46.0695L51.0553 55.1143C50.9436 55.3258 50.9925 55.585 51.181 55.7419ZM44.6053 54.5618L50.455 44.0572C50.4969 43.9822 50.4899 43.8867 50.4341 43.8185C50.3782 43.7503 50.2945 43.7162 50.2037 43.7366L45.6664 44.7598C45.2545 44.8553 44.9404 45.0872 44.738 45.4487L42.1203 50.1553L39.0209 55.7282C38.993 55.776 38.993 55.8306 39.0209 55.8715C39.0489 55.9192 39.0977 55.9397 39.1466 55.9397H43.6351C43.7607 55.9397 43.8654 55.8783 43.9282 55.7692L44.6053 54.5618Z" fill="#A09EA5"/>
</g>
<defs>
<clipPath id="clip0_237_63">
<rect width="100" height="100" fill="white"/>
</clipPath>
</defs>
</svg>
