<svg width="100" height="100" viewBox="0 0 100 100" fill="none" xmlns="http://www.w3.org/2000/svg">
<g clip-path="url(#clip0_237_16)">
<path d="M45 18H55V27H45V18Z" fill="#D6D6D6"/>
<path d="M14 66H20V76H14V66Z" fill="#D6D6D6"/>
<path d="M80 66H86V76H80V66Z" fill="#D6D6D6"/>
<path d="M47 66H53V76H47V66Z" fill="#D6D6D6"/>
<path fill-rule="evenodd" clip-rule="evenodd" d="M56.2305 33.6681L53.2226 31.0806C53.1464 31.0121 53.0474 30.9893 52.9484 31.0045C52.8494 31.0197 52.7657 31.0806 52.72 31.1719L45.5466 44.3455C45.5085 44.414 45.5085 44.4901 45.5542 44.551C45.5923 44.6195 45.6608 44.65 45.7369 44.65H50.5421C50.6791 44.65 50.7934 44.5815 50.8619 44.4597L56.3524 34.3683C56.4895 34.1324 56.4362 33.8432 56.2305 33.6681ZM51.2883 46.3319L54.2963 48.9194C54.3725 48.9879 54.4715 49.0107 54.5705 48.9955C54.6694 48.9803 54.7532 48.9194 54.7989 48.8281L61.9723 35.6545C62.0104 35.586 62.0104 35.5099 61.9647 35.449C61.9266 35.3805 61.8581 35.35 61.782 35.35H56.9616C56.8245 35.35 56.7103 35.4185 56.6418 35.5403L51.1513 45.6317C51.0294 45.8676 51.0827 46.1568 51.2883 46.3319ZM44.1149 45.0153L50.4964 33.2952C50.5421 33.2115 50.5345 33.105 50.4735 33.0289C50.4126 32.9528 50.3212 32.9147 50.2222 32.9375L45.2724 34.0791C44.8231 34.1857 44.4804 34.4444 44.2596 34.8478L41.4039 40.0989L38.0228 46.3166C37.9924 46.3699 37.9924 46.4308 38.0228 46.4765C38.0533 46.5297 38.1066 46.5526 38.1599 46.5526H43.0564C43.1935 46.5526 43.3077 46.4841 43.3763 46.3623L44.1149 45.0153Z" fill="#666666"/>
<path d="M67 40H69V44H67V40Z" fill="#666666"/>
<path d="M50 74C50.5523 74 51 73.5523 51 73C51 72.4477 50.5523 72 50 72C49.4477 72 49 72.4477 49 73C49 73.5523 49.4477 74 50 74Z" fill="#666666"/>
<path d="M83 74C83.5523 74 84 73.5523 84 73C84 72.4477 83.5523 72 83 72C82.4477 72 82 72.4477 82 73C82 73.5523 82.4477 74 83 74Z" fill="#666666"/>
<path d="M32 58H36V60H32V58Z" fill="#666666"/>
<path d="M16 65H13V68H7V72H9V70H13V77H21V70H25V91H9V76H7V93H27V68H21V65H18V60H28V58H16V65ZM19 67V75H15V67H19Z" fill="#666666"/>
<path d="M17 74C17.5523 74 18 73.5523 18 73C18 72.4477 17.5523 72 17 72C16.4477 72 16 72.4477 16 73C16 73.5523 16.4477 74 17 74Z" fill="#666666"/>
<path d="M87 68V65H84V58H51V53H69V48H67V51H33V28H67V36H69V28H73V17H59.46C60.0109 16.3866 60.4294 15.6662 60.6893 14.8838C60.9491 14.1013 61.0448 13.2737 60.9702 12.4526C60.8957 11.6316 60.6526 10.8347 60.2561 10.1118C59.8595 9.38899 59.3182 8.75572 58.6658 8.2516C58.0134 7.74749 57.2641 7.38339 56.4646 7.18205C55.6651 6.98071 54.8326 6.94647 54.0193 7.08147C53.206 7.21647 52.4292 7.5178 51.7377 7.96663C51.0461 8.41546 50.4545 9.00214 50 9.68998C49.5463 9.00008 48.955 8.41135 48.2631 7.96068C47.5712 7.51001 46.7937 7.20713 45.9793 7.07102C45.1649 6.93491 44.3311 6.96851 43.5303 7.16971C42.7294 7.37091 41.9788 7.73538 41.3254 8.24026C40.6721 8.74514 40.13 9.37955 39.7333 10.1037C39.3366 10.8279 39.0938 11.6262 39.02 12.4486C38.9463 13.271 39.0432 14.0998 39.3048 14.883C39.5663 15.6662 39.9869 16.3869 40.54 17H27V28H31V53H49V58H40V60H49V65H46V68H40V84H42V70H46V77H54V70H58V91H42V88H40V93H60V68H54V65H51V60H82V65H79V68H73V80H75V70H79V77H87V70H91V91H75V84H73V93H93V68H87ZM71 19V26H56V19H71ZM51 13C51 12.2089 51.2346 11.4355 51.6741 10.7777C52.1136 10.1199 52.7384 9.60721 53.4693 9.30446C54.2002 9.00171 55.0044 8.9225 55.7804 9.07684C56.5563 9.23118 57.269 9.61214 57.8284 10.1716C58.3878 10.731 58.7688 11.4437 58.9231 12.2196C59.0775 12.9955 58.9983 13.7998 58.6955 14.5307C58.3928 15.2616 57.8801 15.8863 57.2223 16.3259C56.5645 16.7654 55.7911 17 55 17H51V13ZM51 19H54V26H46V19H51ZM45 8.99998C46.0609 8.99998 47.0783 9.42141 47.8284 10.1716C48.5786 10.9217 49 11.9391 49 13V17H45C43.9391 17 42.9217 16.5786 42.1716 15.8284C41.4214 15.0783 41 14.0608 41 13C41 11.9391 41.4214 10.9217 42.1716 10.1716C42.9217 9.42141 43.9391 8.99998 45 8.99998ZM29 26V19H44V26H29ZM52 67V75H48V67H52ZM85 75H81V67H85V75Z" fill="#666666"/>
</g>
<defs>
<clipPath id="clip0_237_16">
<rect width="100" height="100" fill="white"/>
</clipPath>
</defs>
</svg>
