<svg width="100" height="100" viewBox="0 0 100 100" fill="none" xmlns="http://www.w3.org/2000/svg">
<g clip-path="url(#clip0_237_1147)">
<path d="M50 84C57.732 84 64 77.732 64 70C64 62.268 57.732 56 50 56C42.268 56 36 62.268 36 70C36 77.732 42.268 84 50 84Z" fill="#413D4A"/>
<path d="M41 28H59V46H41V28Z" fill="#413D4A"/>
<path d="M81 58H83V62H81V58Z" fill="#A09EA5"/>
<path d="M81 91H19V84H17V93H83V66H81V91Z" fill="#A09EA5"/>
<path d="M17 76H19V80H17V76Z" fill="#A09EA5"/>
<path d="M80 27V29H87V45H60V29H76V27H66.305C67.691 26.0312 68.8347 24.7557 69.6473 23.2727C70.4599 21.7898 70.9193 20.1393 70.99 18.4498C71.0606 16.7603 70.7404 15.0772 70.0544 13.5316C69.3684 11.986 68.3351 10.6195 67.0348 9.53847C65.7345 8.4574 64.2023 7.69091 62.5575 7.29863C60.9126 6.90636 59.1994 6.89887 57.5512 7.27676C55.9029 7.65464 54.3641 8.40772 53.0544 9.47738C51.7447 10.547 50.6995 11.9045 50 13.444C49.3005 11.9045 48.2553 10.547 46.9456 9.47738C45.6359 8.40772 44.0971 7.65464 42.4488 7.27676C40.8006 6.89887 39.0874 6.90636 37.4425 7.29863C35.7977 7.69091 34.2655 8.4574 32.9652 9.53847C31.6649 10.6195 30.6316 11.986 29.9456 13.5316C29.2596 15.0772 28.9394 16.7603 29.01 18.4498C29.0807 20.1393 29.5401 21.7898 30.3527 23.2727C31.1653 24.7557 32.309 26.0312 33.695 27H11V47H17V72H19V47H81V54H83V47H89V27H80ZM60 9C62.3869 9 64.6761 9.94821 66.364 11.636C68.0518 13.3239 69 15.6131 69 18C69 20.3869 68.0518 22.6761 66.364 24.364C64.6761 26.0518 62.3869 27 60 27H51V18C51.0026 15.6139 51.9517 13.3262 53.639 11.639C55.3262 9.95171 57.6139 9.00265 60 9ZM31 18C31 15.6131 31.9482 13.3239 33.636 11.636C35.3239 9.94821 37.6131 9 40 9C42.3869 9 44.6761 9.94821 46.364 11.636C48.0518 13.3239 49 15.6131 49 18V27H40C37.6139 26.9974 35.3262 26.0483 33.639 24.361C31.9517 22.6738 31.0026 20.3861 31 18ZM17 45H13V29H40V45H17ZM42 45V29H58V45H42Z" fill="#A09EA5"/>
<path d="M55 55.875V58C57.7741 59.1559 60.0621 61.2372 61.4746 63.8898C62.8871 66.5425 63.337 69.6026 62.7476 72.5495C62.1582 75.4964 60.566 78.1481 58.2419 80.0535C55.9178 81.9588 53.0053 83 50 83C46.9947 83 44.0823 81.9588 41.7582 80.0535C39.4341 78.1481 37.8419 75.4964 37.2525 72.5495C36.6631 69.6026 37.1129 66.5425 38.5255 63.8898C39.938 61.2372 42.2259 59.1559 45 58V55.875C41.664 57.0545 38.8523 59.3753 37.0619 62.4274C35.2715 65.4795 34.6177 69.0662 35.2161 72.5537C35.8144 76.0411 37.6264 79.2048 40.3317 81.4855C43.0371 83.7662 46.4616 85.0171 50 85.0171C53.5385 85.0171 56.963 83.7662 59.6683 81.4855C62.3737 79.2048 64.1857 76.0411 64.784 72.5537C65.3824 69.0662 64.7286 65.4795 62.9382 62.4274C61.1478 59.3753 58.3361 57.0545 55 55.875Z" fill="#A09EA5"/>
<path d="M49 52H51V72H49V52Z" fill="#A09EA5"/>
</g>
<defs>
<clipPath id="clip0_237_1147">
<rect width="100" height="100" fill="white"/>
</clipPath>
</defs>
</svg>
