<?xml version="1.0" encoding="utf-8"?>
<!-- Generator: Adobe Illustrator 24.0.1, SVG Export Plug-In . SVG Version: 6.00 Build 0)  -->
<svg version="1.1" id="Layer_1" xmlns="http://www.w3.org/2000/svg" xmlns:xlink="http://www.w3.org/1999/xlink" x="0px" y="0px"
	 viewBox="0 0 300 100" style="enable-background:new 0 0 300 100;" xml:space="preserve">
<style type="text/css">
	.st0{clip-path:url(#SVGID_1_);fill:url(#SVGID_2_);}
	.st1{clip-path:url(#SVGID_3_);fill:url(#SVGID_4_);}
	.st2{clip-path:url(#SVGID_5_);fill:url(#SVGID_6_);}
	.st3{clip-path:url(#SVGID_7_);fill:url(#SVGID_8_);}
	.st4{fill-rule:evenodd;clip-rule:evenodd;fill:#B3F6FB;}
	.st5{clip-path:url(#SVGID_9_);fill:url(#SVGID_10_);}
	.st6{clip-path:url(#SVGID_11_);fill:url(#SVGID_12_);}
	.st7{clip-path:url(#SVGID_13_);fill:url(#SVGID_14_);}
	.st8{fill-rule:evenodd;clip-rule:evenodd;fill:#FFFFFF;}
</style>
<title>Artboard</title>
<desc>Created with Sketch.</desc>
<g>
	<g>
		<g>
			<defs>
				<path id="SVGID_22_" d="M48.1,24.1l-0.3-0.2c-0.2-0.2-0.5-0.2-0.7-0.2l-17.9,4.1c-1.6,0.4-2.9,1.3-3.7,2.8L2.9,72.3
					c-0.1,0.2-0.1,0.4,0,0.6C2.9,72.9,3,73,3,73l0.3,0.2l0,0l0,0l0,0l0,0l0.9,0.7l0,0l0,0l0,0l0,0l0,0l0.3,0.2c0,0,0,0,0,0l0,0
					c0.1,0.1,0.2,0.1,0.4,0.1l17.7,0c0.5,0,0.9-0.3,1.2-0.7l2.7-4.9l23.1-42.5c0.2-0.3,0.1-0.7-0.1-1c-0.1-0.1-0.1-0.1-0.2-0.2
					l-0.3-0.2l0,0l0,0l0,0l0,0l0,0L48.1,24.1L48.1,24.1z"/>
			</defs>
			<clipPath id="SVGID_1_">
				<use xlink:href="#SVGID_22_"  style="overflow:visible;"/>
			</clipPath>
			<linearGradient id="SVGID_2_" gradientUnits="userSpaceOnUse" x1="22.3357" y1="55.7209" x2="46.0842" y2="15.2625">
				<stop  offset="0" style="stop-color:#1E8943"/>
				<stop  offset="0.99" style="stop-color:#1E8742"/>
				<stop  offset="1" style="stop-color:#0DE5F2"/>
			</linearGradient>
			<rect x="2.8" y="23.7" class="st0" width="47" height="50.6"/>
		</g>
		<g>
			<defs>
				<path id="SVGID_25_" d="M71.2,27.5l-10.9-9.4c0,0,0,0-0.1,0L60,17.9l0,0l0,0l0,0l0,0L59,17.2l0,0l-0.3-0.2
					c-0.3-0.2-0.6-0.3-0.9-0.2c-0.4,0.1-0.6,0.3-0.8,0.6l-26,47.8c-0.1,0.2-0.1,0.5,0,0.7c0.1,0.1,0.1,0.2,0.2,0.2l0.3,0.2l0,0l0,0
					l0,0l0,0l0.9,0.7l0,0l0.3,0.2c0.1,0.1,0.3,0.1,0.5,0.1h17.5c0.5,0,0.9-0.3,1.2-0.7l19.9-36.6C72.1,29.2,71.9,28.2,71.2,27.5"/>
			</defs>
			<clipPath id="SVGID_3_">
				<use xlink:href="#SVGID_25_"  style="overflow:visible;"/>
			</clipPath>
			<linearGradient id="SVGID_4_" gradientUnits="userSpaceOnUse" x1="47.2545" y1="48.306" x2="72.4599" y2="10.7613">
				<stop  offset="0" style="stop-color:#1E8943"/>
				<stop  offset="0.99" style="stop-color:#1E8742"/>
				<stop  offset="1" style="stop-color:#0DE5F2"/>
			</linearGradient>
			<rect x="30.8" y="16.7" class="st1" width="41.3" height="50.7"/>
		</g>
		<g>
			<defs>
				<path id="SVGID_28_" d="M26.5,68.7L26.5,68.7l23.1-42.5c0.2-0.3,0.1-0.7-0.1-1c-0.2-0.3-0.6-0.4-0.9-0.3L30.7,29
					c-1.6,0.4-2.9,1.3-3.7,2.8L16.7,50.9L4.4,73.4c-0.1,0.2-0.1,0.4,0,0.6c0.1,0.2,0.3,0.3,0.5,0.3l17.7,0c0.5,0,0.9-0.3,1.2-0.7
					L26.5,68.7z"/>
			</defs>
			<clipPath id="SVGID_5_">
				<use xlink:href="#SVGID_28_"  style="overflow:visible;"/>
			</clipPath>
			<linearGradient id="SVGID_6_" gradientUnits="userSpaceOnUse" x1="27.0303" y1="49.5768" x2="-3.1951" y2="102.0412">
				<stop  offset="0" style="stop-color:#8DDB30"/>
				<stop  offset="1" style="stop-color:#FFFFFF"/>
			</linearGradient>
			<rect x="4.3" y="24.8" class="st2" width="45.5" height="49.5"/>
		</g>
		<g>
			<defs>
				<path id="SVGID_31_" d="M71.2,27.5l-10.9-9.4c-0.3-0.2-0.6-0.3-1-0.3c-0.4,0.1-0.7,0.3-0.8,0.6l-26,47.8c-0.1,0.2-0.1,0.5,0,0.7
					c0.1,0.2,0.4,0.4,0.6,0.4h17.5c0.5,0,0.9-0.3,1.2-0.7l19.9-36.6C72.1,29.2,71.9,28.2,71.2,27.5"/>
			</defs>
			<clipPath id="SVGID_7_">
				<use xlink:href="#SVGID_31_"  style="overflow:visible;"/>
			</clipPath>
			<linearGradient id="SVGID_8_" gradientUnits="userSpaceOnUse" x1="52.1922" y1="42.6505" x2="19.9659" y2="91.2884">
				<stop  offset="0" style="stop-color:#8DDB30"/>
				<stop  offset="1" style="stop-color:#FFFFFF"/>
			</linearGradient>
			<rect x="32.3" y="17.8" class="st3" width="39.8" height="49.6"/>
		</g>
		<path class="st4" d="M27.3,32.1c0.8-1.5,2-2.4,3.7-2.8l17.7-4.4l-18,4.1c-1.6,0.4-2.9,1.3-3.7,2.8L16.6,50.8L4.4,73.4L17,51.1
			L27.3,32.1z"/>
		<path class="st4" d="M58.7,18.7c0.2-0.3,0.5-0.5,0.8-0.6c0.4-0.1,0.7,0,1,0.3l10.8,9.3c-0.1-0.1-0.1-0.1-0.2-0.2l-10.9-9.4
			l-0.1-0.1c-0.3-0.2-0.6-0.2-0.9-0.2c-0.4,0.1-0.7,0.3-0.8,0.6L32.7,65.8L58.7,18.7z"/>
		<g>
			<defs>
				<path id="SVGID_34_" d="M52.5,73.5l10.9,9.4c0,0,0,0,0.1,0l0.3,0.2l0,0l0,0l0,0l0,0l0.9,0.7l0,0l0.3,0.2
					c0.3,0.2,0.6,0.3,0.9,0.2c0.4-0.1,0.6-0.3,0.8-0.6l26-47.8c0.1-0.2,0.1-0.5,0-0.7c-0.1-0.1-0.1-0.2-0.2-0.2l-0.3-0.2l0,0l0,0
					l0,0l0,0L91.3,34l0,0L91,33.8c-0.1-0.1-0.3-0.1-0.5-0.1H73.1c-0.5,0-0.9,0.3-1.2,0.7L52,70.9C51.6,71.8,51.8,72.8,52.5,73.5"/>
			</defs>
			<clipPath id="SVGID_9_">
				<use xlink:href="#SVGID_34_"  style="overflow:visible;"/>
			</clipPath>
			<linearGradient id="SVGID_10_" gradientUnits="userSpaceOnUse" x1="76.4593" y1="52.6831" x2="51.2364" y2="90.2455">
				<stop  offset="0" style="stop-color:#1E8943"/>
				<stop  offset="0.99" style="stop-color:#1E8742"/>
				<stop  offset="1" style="stop-color:#0DE5F2"/>
			</linearGradient>
			<rect x="51.6" y="33.6" class="st5" width="41.3" height="50.7"/>
		</g>
		<g>
			<defs>
				<path id="SVGID_37_" d="M52.5,73.5l10.9,9.4c0.3,0.2,0.6,0.3,1,0.3c0.4-0.1,0.6-0.3,0.8-0.6l26-47.8c0.1-0.2,0.1-0.5,0-0.7
					c-0.1-0.2-0.4-0.4-0.7-0.4H73.1c-0.5,0-0.9,0.3-1.2,0.7L52,70.9C51.6,71.8,51.8,72.8,52.5,73.5"/>
			</defs>
			<clipPath id="SVGID_11_">
				<use xlink:href="#SVGID_37_"  style="overflow:visible;"/>
			</clipPath>
			<linearGradient id="SVGID_12_" gradientUnits="userSpaceOnUse" x1="71.5131" y1="58.3502" x2="103.7394" y2="9.6948">
				<stop  offset="0" style="stop-color:#8DDB30"/>
				<stop  offset="1" style="stop-color:#FFFFFF"/>
			</linearGradient>
			<rect x="51.6" y="33.6" class="st6" width="39.8" height="49.6"/>
		</g>
		<g>
			<defs>
				<path id="SVGID_40_" d="M65,82.3c-0.2,0.3-0.5,0.5-0.8,0.6c-0.4,0.1-0.7,0-1-0.3l-10.8-9.3c0.1,0.1,0.1,0.1,0.2,0.2l10.9,9.4
					l0.1,0.1c0.3,0.2,0.6,0.2,0.9,0.2c0.4-0.1,0.6-0.3,0.8-0.6L91,35.2L65,82.3z"/>
			</defs>
			<clipPath id="SVGID_13_">
				<use xlink:href="#SVGID_40_"  style="overflow:visible;"/>
			</clipPath>
			<linearGradient id="SVGID_14_" gradientUnits="userSpaceOnUse" x1="64.6939" y1="68.1496" x2="85.5287" y2="41.3997">
				<stop  offset="0" style="stop-color:#8DDB30"/>
				<stop  offset="1" style="stop-color:#FFFFFF"/>
			</linearGradient>
			<rect x="52.3" y="35.2" class="st7" width="38.7" height="48"/>
		</g>
	</g>
	<path class="st8" d="M145.4,53.7c0.1-3.3,1.9-6,5.9-6h4.6c4,0,5.9,2.6,5.9,6c0,0,0,0.1,0,0.1c0,3.7-2.6,5.9-6,5.9h-4.6
		c-3.4-0.1-5.9-2.3-5.9-5.8C145.4,53.8,145.4,53.7,145.4,53.7 M142,57.8c1.5,3.7,4.9,6,9.5,6h4.1c0.9,0,1.7-0.1,2.5-0.2
		c5.6-1,7.8-5.7,7.8-9.9c0-6.3-4.3-10.1-10.3-10.1h-4c-6,0-10.3,3.8-10.3,10.1C141.3,55.2,141.5,56.6,142,57.8z M117.3,43.8l10.7,20
		c0,0,0,0.1,0.1,0.1h2.9c0,0,0.1,0,0.1-0.1l10.7-20c0,0,0-0.1,0-0.1c0-0.1,0-0.1-0.1-0.1h-4.3c-0.1,0-0.1,0-0.1,0.1l-7.6,14.3
		c-0.1,0.1-0.2,0.1-0.2,0l-7.6-14.3c0,0-0.1-0.1-0.1-0.1h-4.3C117.4,43.6,117.3,43.6,117.3,43.8C117.3,43.7,117.3,43.7,117.3,43.8z
		 M98.7,43.7v3.8c0,0.1,0,0.1,0.1,0.1h16.3c0.1,0,0.2,0,0.2-0.2v-3.8c0-0.1,0-0.1-0.2-0.2H98.8C98.8,43.6,98.7,43.6,98.7,43.7z
		 M180.2,43.7v20.1c0,0.1,0,0.1,0.1,0.1h3.7c0.1,0,0.2,0,0.2-0.2V49.5c0-0.1,0.1-0.1,0.1-0.1c0,0,0,0,0.1,0c4,4.6,7.2,8.1,9.3,10.6
		c1.3,1.4,2.4,2.7,3.3,3.8c0,0,0.1,0,0.1,0h4.8c0.1,0,0.2,0,0.2-0.2V43.7c0-0.1,0-0.1-0.2-0.2h-3.8c-0.1,0-0.1,0-0.2,0.2v14.7
		c0,0.2-0.1,0.1-0.1,0.1c0,0-0.1,0-0.1,0l-13.1-14.9c0,0-0.1,0-0.1,0h-4.3C180.3,43.6,180.2,43.6,180.2,43.7z M208.9,53.7
		c0.1-3.3,1.9-6,5.9-6h4.6c4,0,5.9,2.6,5.9,6c0,0,0,0.1,0,0.1c0,3.7-2.6,5.9-6,5.9h-4.6c-3.4-0.1-5.9-2.3-5.9-5.8
		C208.9,53.8,208.9,53.7,208.9,53.7z M205.6,57.8c1.5,3.7,4.9,6,9.5,6h4.1c0.9,0,1.7-0.1,2.5-0.2c5.6-1,7.8-5.7,7.8-9.9
		c0-6.3-4.3-10.1-10.3-10.1h-4c-6,0-10.3,3.8-10.3,10.1C204.9,55.2,205.1,56.6,205.6,57.8z M236.2,47.7h7.3c4,0,5.8,2.6,5.9,6
		c0,0,0,0.1,0,0.1c0,3.4-2.2,5.7-5.4,5.9h-7.8c-0.1,0-0.1,0-0.1-0.1C236.2,55.6,236.2,51.6,236.2,47.7z M232.3,63.8h10.9
		c7.4,0,10.3-5.3,10.3-10.1c0-5.1-3.2-10.1-10.4-10.1h-10.9c-0.1,0-0.1,0-0.1,0.2c0,6.7,0,13.3,0,20
		C232.2,63.8,232.2,63.8,232.3,63.8z M256.2,43.7v3.8c0,0.1,0,0.1,0.1,0.1h16.3c0.1,0,0.2,0,0.2-0.2v-3.8c0-0.1,0-0.1-0.2-0.2h-16.3
		C256.3,43.6,256.2,43.6,256.2,43.7z M256.2,51.8v11.9c0,0.1,0,0.2,0.2,0.2h16.3c0.1,0,0.2,0,0.2-0.2v-3.8c0-0.1-0.1-0.1-0.2-0.2
		h-12.3c-0.1,0-0.1,0-0.1-0.1v-3.7c0-0.1,0-0.1,0.1-0.1h12.3c0.1,0,0.2,0,0.2-0.1v-3.8c0-0.1,0-0.1-0.2-0.1h-16.3
		C256.3,51.6,256.2,51.7,256.2,51.8z M277.1,50.2c0.2,3.9,2.7,5.5,6.5,5.5h8.2c1.8,0.2,2.3,1.2,2.3,1.9c0,0.2,0,0.6-0.3,1.1
		c-0.3,0.5-0.9,0.9-1.6,0.9h-13.9c-0.1,0-0.1,0-0.2,0.2v3.8c0,0.1,0,0.2,0.2,0.2h13.2c1.6,0,3-0.4,4.3-1.3c1.6-1.2,2.3-3.3,2.3-4.9
		c0-0.2,0.1-1-0.4-2.2c-0.5-1.2-1.4-2.3-2.7-2.8c-1.8-0.8-3.8-0.8-5.7-0.8H283c-2.4,0-2.4-4,0-4h13.3c0.1,0,0.1,0,0.1-0.1v-3.8
		c0-0.1-0.1-0.1-0.2-0.1h-13.1c-1.5,0-3.1,0.6-4.2,1.7c-1.1,1.1-1.8,2.7-1.8,4.6C277.1,50,277.1,50.1,277.1,50.2z M98.7,51.8v11.9
		c0,0.1,0,0.2,0.2,0.2h16.3c0.1,0,0.2,0,0.2-0.2v-3.8c0-0.1-0.1-0.1-0.2-0.2h-12.3c-0.1,0-0.1,0-0.1-0.1v-3.7c0-0.1,0-0.1,0.1-0.1
		h12.3c0.1,0,0.2,0,0.2-0.1v-3.8c0-0.1,0-0.1-0.2-0.1H98.8C98.7,51.6,98.7,51.7,98.7,51.8z"/>
</g>
</svg>
