<svg width="100" height="100" viewBox="0 0 100 100" fill="none" xmlns="http://www.w3.org/2000/svg">
<g clip-path="url(#clip0_237_1163)">
<path d="M80 60C86.6274 60 92 58.2091 92 56C92 53.7909 86.6274 52 80 52C73.3726 52 68 53.7909 68 56C68 58.2091 73.3726 60 80 60Z" fill="#413D4A"/>
<path d="M64 72C70.6274 72 76 70.2091 76 68C76 65.7909 70.6274 64 64 64C57.3726 64 52 65.7909 52 68C52 70.2091 57.3726 72 64 72Z" fill="#413D4A"/>
<path d="M32 24H46V38H32V24Z" fill="#413D4A"/>
<path d="M12 60H14V64H12V60Z" fill="#A09EA5"/>
<path fill-rule="evenodd" clip-rule="evenodd" d="M47.3411 46.1505L42.665 42.1254C42.5466 42.0188 42.3927 41.9833 42.2388 42.007C42.0849 42.0307 41.9547 42.1254 41.8836 42.2675L30.7319 62.7597C30.6727 62.8663 30.6727 62.9847 30.7437 63.0794C30.8029 63.1859 30.9094 63.2333 31.0278 63.2333H38.4978C38.7109 63.2333 38.8885 63.1267 38.9951 62.9373L47.5305 47.2396C47.7436 46.8726 47.6608 46.4227 47.3411 46.1505ZM39.658 65.8496L44.3342 69.8746C44.4526 69.9812 44.6065 70.0167 44.7604 69.993C44.9143 69.9693 45.0445 69.8746 45.1155 69.7325L56.2673 49.2403C56.3265 49.1337 56.3265 49.0153 56.2555 48.9206C56.1963 48.8141 56.0897 48.7667 55.9713 48.7667H48.4776C48.2645 48.7667 48.087 48.8733 47.9804 49.0627L39.4449 64.7604C39.2555 65.1274 39.3384 65.5773 39.658 65.8496ZM28.5062 63.8015L38.4268 45.5704C38.4978 45.4401 38.486 45.2744 38.3913 45.156C38.2966 45.0376 38.1545 44.9784 38.0006 45.014L30.3057 46.7897C29.6072 46.9555 29.0745 47.358 28.7312 47.9854L24.2918 56.1539L19.0355 65.8259C18.9882 65.9087 18.9882 66.0035 19.0355 66.0745C19.0829 66.1573 19.1657 66.1929 19.2486 66.1929H26.8607C27.0738 66.1929 27.2514 66.0863 27.3579 65.8969L28.5062 63.8015Z" fill="#A09EA5"/>
<path d="M92.046 57.9939C92.3335 57.745 92.5666 57.4394 92.7308 57.0963C92.8949 56.7532 92.9866 56.38 93 55.9999C93 52.7169 86.46 50.9999 80 50.9999C73.54 50.9999 67 52.7169 67 55.9999C67.0134 56.38 67.1051 56.7532 67.2692 57.0963C67.4334 57.4394 67.6665 57.745 67.954 57.9939C67.656 58.2351 67.4156 58.5399 67.2505 58.8859C67.0854 59.232 66.9997 59.6105 66.9997 59.9939C66.9997 60.3773 67.0854 60.7559 67.2505 61.1019C67.4156 61.4479 67.656 61.7527 67.954 61.9939C67.6142 62.3158 67.3499 62.7088 67.18 63.1449C66.7933 63.1102 66.4 63.0819 66 63.0599V38.9999H71V22.9999H52.644C53.6886 22.1598 54.5322 21.0968 55.113 19.8887C55.6938 18.6806 55.9972 17.3579 56.001 16.0174C56.0047 14.6769 55.7088 13.3525 55.1348 12.1411C54.5607 10.9298 53.7232 9.86203 52.6833 9.01607C51.6435 8.1701 50.4277 7.56731 49.1248 7.25177C47.822 6.93624 46.4651 6.91596 45.1534 7.1924C43.8417 7.46885 42.6084 8.03503 41.5438 8.84953C40.4791 9.66403 39.61 10.7062 39 11.8999C38.3904 10.7054 37.5214 9.66241 36.4566 8.84716C35.3918 8.03192 34.1582 7.4651 32.8461 7.1882C31.5339 6.9113 30.1765 6.93133 28.8731 7.24682C27.5697 7.56231 26.3533 8.16528 25.313 9.01158C24.2728 9.85789 23.4349 10.9261 22.8608 12.138C22.2867 13.35 21.9909 14.675 21.995 16.016C21.9991 17.357 22.3031 18.6802 22.8846 19.8886C23.4662 21.097 24.3106 22.16 25.356 22.9999H7V38.9999H12V55.9999H14V38.9999H64V62.9999C57.54 62.9999 51 64.7169 51 67.9999C51.0134 68.38 51.1051 68.7532 51.2692 69.0963C51.4334 69.4394 51.6665 69.745 51.954 69.9939C51.656 70.2351 51.4156 70.5399 51.2505 70.8859C51.0854 71.232 50.9997 71.6105 50.9997 71.9939C50.9997 72.3773 51.0854 72.7559 51.2505 73.1019C51.4156 73.4479 51.656 73.7527 51.954 73.9939C51.6503 74.2806 51.4033 74.6218 51.226 74.9999H14V67.9999H12V76.9999H51.23C51.4083 77.3729 51.6537 77.7098 51.954 77.9939C51.656 78.2351 51.4156 78.5399 51.2505 78.8859C51.0854 79.232 50.9997 79.6105 50.9997 79.9939C50.9997 80.3773 51.0854 80.7559 51.2505 81.1019C51.4156 81.4479 51.656 81.7527 51.954 81.9939C51.656 82.2351 51.4156 82.5399 51.2505 82.8859C51.0854 83.232 50.9997 83.6105 50.9997 83.9939C50.9997 84.3773 51.0854 84.7559 51.2505 85.1019C51.4156 85.4479 51.656 85.7527 51.954 85.9939C51.6651 86.2443 51.4311 86.5518 51.2669 86.897C51.1028 87.2423 51.0119 87.6178 51 87.9999C51 91.2829 57.54 92.9999 64 92.9999C69.874 92.9999 75.8 91.5759 76.826 88.8499C77.868 88.9429 78.932 88.9999 80 88.9999C86.46 88.9999 93 87.2829 93 83.9999C92.9881 83.6178 92.8972 83.2423 92.733 82.897C92.5689 82.5518 92.3349 82.2443 92.046 81.9939C92.344 81.7527 92.5844 81.4479 92.7495 81.1019C92.9146 80.7559 93.0003 80.3773 93.0003 79.9939C93.0003 79.6105 92.9146 79.232 92.7495 78.8859C92.5844 78.5399 92.344 78.2351 92.046 77.9939C92.344 77.7527 92.5844 77.4479 92.7495 77.1019C92.9146 76.7559 93.0003 76.3773 93.0003 75.9939C93.0003 75.6105 92.9146 75.232 92.7495 74.8859C92.5844 74.5399 92.344 74.2351 92.046 73.9939C92.344 73.7527 92.5844 73.4479 92.7495 73.1019C92.9146 72.7559 93.0003 72.3773 93.0003 71.9939C93.0003 71.6105 92.9146 71.232 92.7495 70.8859C92.5844 70.5399 92.344 70.2351 92.046 69.9939C92.344 69.7527 92.5844 69.4479 92.7495 69.1019C92.9146 68.7559 93.0003 68.3773 93.0003 67.9939C93.0003 67.6105 92.9146 67.232 92.7495 66.8859C92.5844 66.5399 92.344 66.2351 92.046 65.9939C92.344 65.7527 92.5844 65.4479 92.7495 65.1019C92.9146 64.7559 93.0003 64.3773 93.0003 63.9939C93.0003 63.6105 92.9146 63.232 92.7495 62.8859C92.5844 62.5399 92.344 62.2351 92.046 61.9939C92.344 61.7527 92.5844 61.4479 92.7495 61.1019C92.9146 60.7559 93.0003 60.3773 93.0003 59.9939C93.0003 59.6105 92.9146 59.232 92.7495 58.8859C92.5844 58.5399 92.344 58.2351 92.046 57.9939ZM31 36.9999H9V24.9999H31V36.9999ZM24 15.9999C24 14.1434 24.7375 12.3629 26.0503 11.0502C27.363 9.73742 29.1435 8.99992 31 8.99992C32.8565 8.99992 34.637 9.73742 35.9497 11.0502C37.2625 12.3629 38 14.1434 38 15.9999V22.9999H31C29.1441 22.9978 27.3649 22.2596 26.0526 20.9473C24.7403 19.635 24.0021 17.8558 24 15.9999ZM45 36.9999H33V24.9999H45V36.9999ZM40 22.9999V15.9999C40 14.6154 40.4105 13.2621 41.1797 12.1109C41.9489 10.9598 43.0421 10.0626 44.3212 9.53276C45.6003 9.00295 47.0078 8.86432 48.3656 9.13442C49.7235 9.40452 50.9708 10.0712 51.9497 11.0502C52.9287 12.0291 53.5954 13.2764 53.8655 14.6343C54.1356 15.9922 53.997 17.3996 53.4672 18.6787C52.9373 19.9578 52.0401 21.051 50.889 21.8202C49.7378 22.5894 48.3845 22.9999 47 22.9999H40ZM47 36.9999V24.9999H69V36.9999H47ZM64 90.9999C56.883 90.9999 53 89.0179 53 87.9999C53 87.7589 53.247 87.4609 53.678 87.1509C56.179 88.3699 60.1 88.9999 64 88.9999C67.9 88.9999 71.821 88.3699 74.322 87.1509C74.753 87.4609 75 87.7589 75 87.9999C75 89.0179 71.117 90.9999 64 90.9999ZM64 86.9999C56.883 86.9999 53 85.0179 53 83.9999C53 83.7589 53.247 83.4609 53.678 83.1509C56.179 84.3699 60.1 84.9999 64 84.9999C67.9 84.9999 71.821 84.3699 74.322 83.1509C74.753 83.4609 75 83.7589 75 83.9999C75 85.0179 71.117 86.9999 64 86.9999ZM64 82.9999C56.883 82.9999 53 81.0179 53 79.9999C53 79.7589 53.247 79.4609 53.678 79.1509C56.179 80.3699 60.1 80.9999 64 80.9999C67.9 80.9999 71.821 80.3699 74.322 79.1509C74.753 79.4609 75 79.7589 75 79.9999C75 81.0179 71.117 82.9999 64 82.9999ZM64 78.9999C56.883 78.9999 53 77.0179 53 75.9999C53 75.7589 53.247 75.4609 53.678 75.1509C56.179 76.3699 60.1 76.9999 64 76.9999C67.9 76.9999 71.821 76.3699 74.322 75.1509C74.753 75.4609 75 75.7589 75 75.9999C75 77.0179 71.117 78.9999 64 78.9999ZM64 74.9999C56.883 74.9999 53 73.0179 53 71.9999C53 71.7589 53.247 71.4609 53.678 71.1509C56.179 72.3699 60.1 72.9999 64 72.9999C67.9 72.9999 71.821 72.3699 74.322 71.1509C74.753 71.4609 75 71.7589 75 71.9999C75 73.0179 71.117 74.9999 64 74.9999ZM64 70.9999C56.883 70.9999 53 69.0179 53 67.9999C53 66.9819 56.883 64.9999 64 64.9999C71.117 64.9999 75 66.9819 75 67.9999C75 69.0179 71.117 70.9999 64 70.9999ZM80 86.9999C78.793 86.9999 77.7 86.9319 76.687 86.8319C76.5176 86.5213 76.3014 86.2387 76.046 85.9939C76.3871 85.6718 76.6537 85.2789 76.827 84.8429C77.868 84.9429 78.927 84.9999 80 84.9999C83.9 84.9999 87.821 84.3699 90.322 83.1509C90.753 83.4609 91 83.7589 91 83.9999C91 85.0179 87.117 86.9999 80 86.9999ZM80 82.9999C78.793 82.9999 77.7 82.9319 76.687 82.8319C76.5176 82.5213 76.3014 82.2387 76.046 81.9939C76.3871 81.6718 76.6537 81.2789 76.827 80.8429C77.868 80.9429 78.927 80.9999 80 80.9999C83.9 80.9999 87.821 80.3699 90.322 79.1509C90.753 79.4609 91 79.7589 91 79.9999C91 81.0179 87.117 82.9999 80 82.9999ZM80 78.9999C78.793 78.9999 77.7 78.9319 76.687 78.8319C76.5176 78.5213 76.3014 78.2387 76.046 77.9939C76.3871 77.6718 76.6537 77.2789 76.827 76.8429C77.868 76.9429 78.927 76.9999 80 76.9999C83.9 76.9999 87.821 76.3699 90.322 75.1509C90.753 75.4609 91 75.7589 91 75.9999C91 77.0179 87.117 78.9999 80 78.9999ZM80 74.9999C78.793 74.9999 77.7 74.9319 76.687 74.8319C76.5176 74.5213 76.3014 74.2387 76.046 73.9939C76.3871 73.6718 76.6537 73.2789 76.827 72.8429C77.868 72.9429 78.927 72.9999 80 72.9999C83.9 72.9999 87.821 72.3699 90.322 71.1509C90.753 71.4609 91 71.7589 91 71.9999C91 73.0179 87.117 74.9999 80 74.9999ZM80 70.9999C78.793 70.9999 77.7 70.9319 76.687 70.8319C76.5176 70.5213 76.3014 70.2387 76.046 69.9939C76.3871 69.6718 76.6537 69.2789 76.827 68.8429C77.868 68.9429 78.927 68.9999 80 68.9999C83.9 68.9999 87.821 68.3699 90.322 67.1509C90.753 67.4609 91 67.7589 91 67.9999C91 69.0179 87.117 70.9999 80 70.9999ZM80 66.9999C78.8 66.9999 77.713 66.9329 76.7 66.8339C76.079 65.6719 74.525 64.7719 72.487 64.1339C74.9468 64.7268 77.4698 65.0176 80 64.9999C83.9 64.9999 87.821 64.3699 90.322 63.1509C90.753 63.4609 91 63.7589 91 63.9999C91 65.0179 87.117 66.9999 80 66.9999ZM69.368 63.4169C69.4645 63.3206 69.5682 63.2317 69.678 63.1509C70.269 63.4279 70.8793 63.6618 71.504 63.8509C70.7983 63.677 70.0857 63.5322 69.368 63.4169ZM80 62.9999C72.883 62.9999 69 61.0179 69 59.9999C69 59.7589 69.247 59.4609 69.678 59.1509C72.179 60.3699 76.1 60.9999 80 60.9999C83.9 60.9999 87.821 60.3699 90.322 59.1509C90.753 59.4609 91 59.7589 91 59.9999C91 61.0179 87.117 62.9999 80 62.9999ZM80 58.9999C72.883 58.9999 69 57.0179 69 55.9999C69 54.9819 72.883 52.9999 80 52.9999C87.117 52.9999 91 54.9819 91 55.9999C91 57.0179 87.117 58.9999 80 58.9999Z" fill="#A09EA5"/>
</g>
<defs>
<clipPath id="clip0_237_1163">
<rect width="100" height="100" fill="white"/>
</clipPath>
</defs>
</svg>
