<svg width="100" height="100" viewBox="0 0 100 100" fill="none" xmlns="http://www.w3.org/2000/svg">
<path d="M27.7702 85.2701C27.2702 85.2701 26.8702 84.8801 26.8702 84.3701V46.8301L26.4702 46.7501C17.5302 44.9701 11.3702 39.4001 8.59025 34.7801C7.52025 32.9901 7.95025 30.6901 9.59025 29.4401C10.3202 28.8801 11.2202 28.5701 12.1302 28.5701C13.2102 28.5701 14.2202 28.9901 14.9602 29.7401C20.8002 35.6001 26.7202 37.9401 27.8402 38.3501L27.9202 38.3801H40.1202L40.2002 38.3501C41.3302 37.9401 47.2402 35.6001 53.0802 29.7401C53.8302 28.9801 54.8302 28.5701 55.9102 28.5701C56.8202 28.5701 57.7202 28.8801 58.4502 29.4401C60.0902 30.7101 60.5102 33.0101 59.4502 34.7801C56.6802 39.3901 50.5202 44.9601 41.5702 46.7501L41.1702 46.8301V84.3701C41.1802 84.6101 41.0902 84.8301 40.9302 84.9901C40.7602 85.1601 40.5302 85.2601 40.2802 85.2601H27.7702V85.2701Z" fill="#423E4B"/>
<path d="M75.6804 50.0099C70.9804 50.0099 67.1504 46.1799 67.1504 41.4799C67.1504 36.78 70.9804 32.95 75.6804 32.95C80.3804 32.95 84.2104 36.78 84.2104 41.4799C84.2104 46.1799 80.3804 50.0099 75.6804 50.0099Z" fill="#423E4B"/>
<path d="M34.0204 35.7C38.2304 35.7 41.6404 32.29 41.6404 28.08C41.6404 23.87 38.2304 20.46 34.0204 20.46C29.8104 20.46 26.4004 23.87 26.4004 28.08C26.4004 32.29 29.8104 35.7 34.0204 35.7Z" fill="#423E4B"/>
<path d="M75.6804 32.95C70.9804 32.95 67.1504 36.78 67.1504 41.4799C67.1504 46.1799 70.9804 50.0099 75.6804 50.0099C80.3804 50.0099 84.2104 46.1799 84.2104 41.4799C84.2104 36.78 80.3804 32.95 75.6804 32.95ZM82.4004 41.4799C82.4004 42.8499 81.9904 44.1299 81.2804 45.1899L76.3104 41.13V34.7999C79.7204 35.1099 82.4004 37.9799 82.4004 41.4799ZM68.9604 41.4799C68.9604 38.17 71.3604 35.4199 74.5204 34.8699V41.56C74.5204 41.83 74.6404 42.0799 74.8504 42.2599L80.0804 46.5499C78.9004 47.5699 77.3704 48.2 75.6804 48.2C71.9704 48.2 68.9604 45.1799 68.9604 41.4799Z" fill="#9F9EA5"/>
<path d="M68.1904 85.27V83.27H72.1904V85.27H68.1904Z" fill="#9F9EA5"/>
<path d="M34.02 36.7C29.32 36.7 25.5 32.84 25.5 28.08C25.5 23.33 29.32 19.46 34.02 19.46C38.72 19.46 42.54 23.32 42.54 28.08C42.54 32.83 38.72 36.7 34.02 36.7ZM34.02 21.12C30.26 21.12 27.2 24.24 27.2 28.08C27.2 31.92 30.26 35.04 34.02 35.04C37.77 35.04 40.81 31.92 40.81 28.08C40.82 26.18 40.05 24.34 38.69 23.03C37.43 21.8 35.77 21.12 34.02 21.12Z" fill="#9F9EA5"/>
<path d="M35.5195 15L37.5195 17H90.5195V54H45.5195L43.5195 56H92.5195V15H35.5195Z" fill="#9F9EA5"/>
<path d="M74.3096 85.27V83.27H78.3096V85.27H74.3096Z" fill="#9F9EA5"/>
<path d="M41.1701 83.2701V46.8401L41.5701 46.7601C50.5301 44.9701 56.6801 39.4101 59.4501 34.7901C60.5201 33.0101 60.0901 30.7101 58.4501 29.4501C57.7301 28.8901 56.8301 28.5801 55.9101 28.5801C54.8301 28.5801 53.8201 29.0001 53.0801 29.7501C47.2401 35.6101 41.3201 37.9501 40.2001 38.3601L40.1201 38.3901H27.9201L27.8401 38.3601C26.7101 37.9501 20.8001 35.6101 14.9601 29.7501C14.2101 29.0001 13.2101 28.5801 12.1301 28.5801C11.2201 28.5801 10.3201 28.8901 9.59009 29.4501C7.96009 30.7001 7.53009 33.0001 8.59009 34.7901C11.3701 39.4101 17.5301 44.9801 26.4701 46.7601L26.8701 46.8401V83.2701H15.8201V85.2701H65.6401V83.2701H41.1701ZM27.9101 45.1801C18.9901 43.7601 12.8701 38.4001 10.1201 33.8501C9.53009 32.8601 9.77009 31.5801 10.6901 30.8501C11.0901 30.5401 11.5901 30.3601 12.1001 30.3601C12.7001 30.3601 13.2601 30.5901 13.6901 31.0101C20.0101 37.3201 26.2901 39.7001 27.5201 40.1301C27.5901 40.1601 27.6701 40.1701 27.7801 40.1701H40.2901C40.3901 40.1701 40.4801 40.1601 40.5801 40.1201C40.6501 40.1001 47.5401 37.8601 54.3801 31.0101C54.7901 30.6001 55.3401 30.3801 55.9401 30.3801C56.4601 30.3801 56.9601 30.5501 57.3701 30.8701C58.2801 31.5801 58.5201 32.8701 57.9201 33.8601C55.2001 38.4001 49.1001 43.7701 40.1401 45.1901C39.7001 45.2601 39.3801 45.6301 39.3801 46.0701V83.2601H28.6801V46.0601C28.6801 45.6201 28.3501 45.2401 27.9101 45.1801Z" fill="#9F9EA5"/>
<path d="M35.0098 83.5001H33.0098V66.0601H35.0098V83.5001Z" fill="#9F9EA5"/>
<path d="M48.4697 51.01V49.01H61.9597V51.01H48.4697Z" fill="#9F9EA5"/>
<path d="M65.4502 23.98V21.98H78.9402V23.98H65.4502Z" fill="#9F9EA5"/>
<path d="M65.4502 29.1201V27.1201H82.4002V29.1201H65.4502Z" fill="#9F9EA5"/>
</svg>
