<svg width="100" height="100" viewBox="0 0 100 100" fill="none" xmlns="http://www.w3.org/2000/svg">
<g clip-path="url(#clip0_237_1101)">
<path d="M51.9996 24.8C56.6388 24.8 60.3996 21.0392 60.3996 16.4C60.3996 11.7608 56.6388 8 51.9996 8C47.3604 8 43.5996 11.7608 43.5996 16.4C43.5996 21.0392 47.3604 24.8 51.9996 24.8Z" fill="#413D4A"/>
<path d="M85.6002 87.8C90.2394 87.8 94.0002 84.0392 94.0002 79.4C94.0002 74.7608 90.2394 71 85.6002 71C80.961 71 77.2002 74.7608 77.2002 79.4C77.2002 84.0392 80.961 87.8 85.6002 87.8Z" fill="#413D4A"/>
<path d="M18.4 87.8C23.0392 87.8 26.8 84.0392 26.8 79.4C26.8 74.7608 23.0392 71 18.4 71C13.7608 71 10 74.7608 10 79.4C10 84.0392 13.7608 87.8 18.4 87.8Z" fill="#413D4A"/>
<path d="M39.2002 53.1539V70.9999H31.2002V36.3459L52.0002 53.2459L72.8002 36.3459V70.9999H64.8002V53.1539L52.0002 63.5549" fill="#413D4A"/>
<path d="M30.2002 34.2451V72.0001H40.2002V55.2551L44.0812 58.4091L45.3422 56.8561L38.1992 51.0561V70.0001H32.1992V38.4471L52.0002 54.5341L71.8002 38.4471V52.0001H73.8002V34.2451L52.0002 51.9581L30.2002 34.2451Z" fill="#A09EA5"/>
<path d="M71.8001 70H65.8001V51.053L52.0001 62.267L48.3001 59.257L47.0361 60.81L52.0001 64.843L63.8001 55.256V72H73.8001V64H71.8001V70Z" fill="#A09EA5"/>
<path d="M71.8008 56H73.8008V60H71.8008V56Z" fill="#A09EA5"/>
<path d="M87.3565 70.17C89.6364 65.1552 90.811 59.7087 90.8005 54.2C90.7561 45.5553 87.8448 37.1697 82.5229 30.3572C77.2011 23.5447 69.7694 18.6904 61.3925 16.555C61.3925 16.503 61.4005 16.455 61.4005 16.4C61.4005 13.907 60.4101 11.516 58.6473 9.7532C56.8844 7.99035 54.4935 7 52.0005 7C49.5074 7 47.1165 7.99035 45.3537 9.7532C43.5908 11.516 42.6005 13.907 42.6005 16.4C42.6005 16.452 42.6075 16.5 42.6085 16.554C37.0941 17.9282 31.949 20.4974 27.5373 24.0799C23.1256 27.6623 19.555 32.1705 17.0782 37.2854C14.6014 42.4003 13.2788 47.997 13.204 53.6796C13.1292 59.3621 14.3041 64.9917 16.6455 70.17C15.0757 70.4657 13.6072 71.1565 12.3785 72.1773C11.1498 73.198 10.2015 74.5151 9.62315 76.0041C9.04478 77.4931 8.8554 79.1049 9.07289 80.6874C9.29037 82.2699 9.90755 83.7709 10.8662 85.0486C11.8248 86.3264 13.0932 87.3388 14.5517 87.9903C16.0102 88.6418 17.6106 88.9108 19.202 88.772C20.7933 88.6333 22.323 88.0913 23.6467 87.1972C24.9705 86.3031 26.0445 85.0864 26.7675 83.662C33.7937 89.6877 42.7443 93 52.0005 93C61.2566 93 70.2072 89.6877 77.2335 83.662C77.9572 85.084 79.0312 86.2983 80.3542 87.1903C81.6772 88.0823 83.2056 88.6227 84.7952 88.7605C86.3849 88.8982 87.9834 88.6289 89.4401 87.9778C90.8968 87.3267 92.1637 86.3153 93.1213 85.039C94.079 83.7627 94.6957 82.2635 94.9135 80.6828C95.1313 79.1022 94.9429 77.492 94.3661 76.0043C93.7893 74.5166 92.8431 73.2003 91.6167 72.1796C90.3903 71.1588 88.9242 70.4672 87.3565 70.17ZM52.0005 9C53.4641 9 54.8948 9.434 56.1117 10.2471C57.3286 11.0602 58.2771 12.216 58.8372 13.5681C59.3973 14.9203 59.5438 16.4082 59.2583 17.8437C58.9728 19.2791 58.268 20.5977 57.2331 21.6326C56.1982 22.6675 54.8796 23.3723 53.4441 23.6578C52.0087 23.9433 50.5208 23.7968 49.1686 23.2367C47.8164 22.6766 46.6607 21.7281 45.8476 20.5112C45.0345 19.2943 44.6005 17.8636 44.6005 16.4C44.6028 14.4381 45.3833 12.5573 46.7705 11.17C48.1578 9.78279 50.0386 9.00238 52.0005 9ZM18.4005 86.8C16.9369 86.8 15.5062 86.366 14.2893 85.5529C13.0723 84.7397 12.1239 83.584 11.5638 82.2319C11.0037 80.8797 10.8571 79.3918 11.1427 77.9563C11.4282 76.5209 12.133 75.2023 13.1679 74.1674C14.2028 73.1325 15.5213 72.4277 16.9568 72.1422C18.3923 71.8567 19.8802 72.0032 21.2323 72.5633C22.5845 73.1234 23.7402 74.0719 24.5533 75.2888C25.3665 76.5057 25.8005 77.9364 25.8005 79.4C25.7981 81.3619 25.0177 83.2427 23.6304 84.63C22.2432 86.0172 20.3623 86.7976 18.4005 86.8ZM52.0005 91C42.9681 91.0059 34.2501 87.6837 27.5125 81.668C27.8563 80.3146 27.8927 78.9013 27.619 77.532C27.3452 76.1626 26.7683 74.872 25.9306 73.7547C25.0928 72.6375 24.0155 71.7221 22.7777 71.0756C21.5399 70.4292 20.173 70.0681 18.7775 70.019C16.441 65.1149 15.2195 59.7543 15.2006 54.3221C15.1816 48.8899 16.3657 43.5209 18.6679 38.6006C20.9701 33.6803 24.3331 29.3308 28.5157 25.8644C32.6982 22.3981 37.5964 19.9008 42.8585 18.552C43.3411 20.6145 44.507 22.4531 46.1667 23.7692C47.8264 25.0853 49.8823 25.8016 52.0005 25.8016C54.1186 25.8016 56.1746 25.0853 57.8343 23.7692C59.4939 22.4531 60.6598 20.6145 61.1425 18.552C69.0344 20.6195 76.0232 25.2342 81.0242 31.6799C86.0252 38.1256 88.7587 46.0418 88.8005 54.2C88.8123 59.6748 87.5897 65.0819 85.2235 70.019C83.8279 70.0681 82.461 70.4292 81.2233 71.0756C79.9855 71.7221 78.9081 72.6375 78.0704 73.7547C77.2326 74.872 76.6557 76.1626 76.382 77.532C76.1082 78.9013 76.1446 80.3146 76.4885 81.668C69.7507 87.6835 61.0328 91.0057 52.0005 91ZM85.6005 86.8C84.1369 86.8 82.7062 86.366 81.4893 85.5529C80.2723 84.7397 79.3239 83.584 78.7638 82.2319C78.2037 80.8797 78.0571 79.3918 78.3427 77.9563C78.6282 76.5209 79.333 75.2023 80.3679 74.1674C81.4028 73.1325 82.7213 72.4277 84.1568 72.1422C85.5923 71.8567 87.0802 72.0032 88.4323 72.5633C89.7845 73.1234 90.9402 74.0719 91.7533 75.2888C92.5665 76.5057 93.0005 77.9364 93.0005 79.4C92.9981 81.3619 92.2177 83.2427 90.8304 84.63C89.4432 86.0172 87.5623 86.7976 85.6005 86.8Z" fill="#A09EA5"/>
</g>
<defs>
<clipPath id="clip0_237_1101">
<rect width="100" height="100" fill="white"/>
</clipPath>
</defs>
</svg>
